<?xml version="1.0" encoding="utf-8"?>
<!-- Generator: Adobe Illustrator 24.0.1, SVG Export Plug-In . SVG Version: 6.00 Build 0)  -->
<svg version="1.1" xmlns="http://www.w3.org/2000/svg" xmlns:xlink="http://www.w3.org/1999/xlink" x="0px" y="0px"
	 viewBox="0 0 750 500" style="enable-background:new 0 0 750 500;" xml:space="preserve">
<style type="text/css">
	.st0{clip-path:url(#SVGID_2_);fill:#FFE4DD;}
	.st1{clip-path:url(#SVGID_2_);fill:#FFB8A4;}
	.st2{clip-path:url(#SVGID_2_);}
	.st3{fill:#FFE4DD;}
	.st4{clip-path:url(#SVGID_2_);fill:#18A795;}
	.st5{clip-path:url(#SVGID_2_);fill:#FC981F;}
	.st6{fill:#FC981F;}
	.st7{fill:#FC5B23;}
	.st8{clip-path:url(#SVGID_2_);fill:#011D44;}
	.st9{clip-path:url(#SVGID_2_);fill:#FC5B23;}
	.st10{fill:#011D44;}
	.st11{opacity:0.38;clip-path:url(#SVGID_2_);fill:#FFE4DD;}
	.st12{opacity:0.5;clip-path:url(#SVGID_2_);fill:#FFE4DD;}
	.st13{opacity:0.2;clip-path:url(#SVGID_2_);fill:#FC981F;}
	.st14{fill:#FFFFFF;}
</style>
<g id="BACKGROUND">
</g>
<g id="OBJECTS">
	<g>
		<defs>
			<rect id="SVGID_1_" width="750" height="500"/>
		</defs>
		<clipPath id="SVGID_2_">
			<use xlink:href="#SVGID_1_"  style="overflow:visible;"/>
		</clipPath>
		<path class="st0" d="M431,0c19,43,97.14,63.89,180,42c106-28,123,44,130,109c6.81,63.2-49,134,9,172V0L431,0z"/>
		<path class="st1" d="M72.6,456.26c-36.12,1.94-51.75-43.98-23.91-62.66s96.48,0.18,103.06,21.94
			C158.33,437.31,99.84,454.8,72.6,456.26z"/>
		<g class="st2">
			<g>
				<path class="st3" d="M93.75,437.67c-10.92-8.75-19.98-19.96-25.37-32.93c-4.95-11.92-7.8-28.73-0.92-40.56
					c5.2-8.94,16.79-13.53,26.36-15.86c10.31-2.51,21.77-0.31,31.71,2.84c25,7.95,43.88,27.61,57.52,49.32
					c7.99,12.72,18.21,28.48,10.62,43.69c-5.4,10.82-17.61,17.47-29.51,16.9c-11.7-0.57-23.47-3.34-34.65-6.68
					c-12.63-3.78-25.39-8.73-35.92-16.83c-0.76-0.59-1.51,0.71-0.76,1.3c10.26,7.9,22.69,12.82,34.98,16.59
					c11.22,3.44,22.94,6.17,34.67,7.02c11.01,0.8,21.51-3.35,28.72-11.93c9.91-11.79,7.03-26.04,0.27-38.56
					c-13.25-24.52-31.62-48.14-57.9-59.4c-20.15-8.63-46.12-10.55-63.27,5.71c-10.29,9.75-9.49,27.43-5.84,39.97
					c4.69,16.06,15.25,30.11,28.21,40.49C93.43,439.33,94.5,438.27,93.75,437.67z"/>
			</g>
		</g>
		<path class="st4" d="M301.5,500c21-12,79-29,147,0H301.5z"/>
		<path class="st5" d="M-14,378C6.25,389.45,3,493,99,474c91.12-18.04,151.04,13.53,146,32c-9,33-261,8-261,8L-14,378z"/>
		<path class="st0" d="M0.85,338.64c27.93-45.71,50.98-89.74,40.63-116.81C30.47,193.05,0,180.36,0,180.36L0.85,338.64z"/>
		<g class="st2">
			<g>
				<g>
					<path class="st6" d="M36.25,336.03c0.36-1.39,1.34-2.53,2.7-3.02c0.9-0.33,0.51-1.78-0.4-1.45c-1.85,0.67-3.25,2.15-3.75,4.07
						C34.57,336.57,36.01,336.97,36.25,336.03L36.25,336.03z"/>
				</g>
			</g>
			<g>
				<g>
					<path class="st6" d="M56.25,340.78c1.52-1.5,3.04-3.01,4.56-4.51c0.69-0.68-0.37-1.74-1.06-1.06c-1.52,1.5-3.04,3.01-4.56,4.51
						C54.5,340.4,55.57,341.46,56.25,340.78L56.25,340.78z"/>
				</g>
			</g>
			<g>
				<g>
					<path class="st6" d="M59.73,297.75c1.47-1.19,2.94-2.37,4.42-3.56c0.75-0.61-0.32-1.66-1.06-1.06
						c-1.47,1.19-2.94,2.37-4.42,3.56C57.92,297.3,58.99,298.35,59.73,297.75L59.73,297.75z"/>
				</g>
			</g>
			<g>
				<g>
					<path class="st6" d="M59.73,318.75c1.47-1.19,2.94-2.37,4.42-3.56c0.75-0.61-0.32-1.66-1.06-1.06
						c-1.47,1.19-2.94,2.37-4.42,3.56C57.92,318.3,58.99,319.35,59.73,318.75L59.73,318.75z"/>
				</g>
			</g>
		</g>
		<path class="st4" d="M1,144c71.22,0,12.68-127,101-127c22,0,84,31,79.97-16.7C180.92-12.09,0,0,0,0S-37,144,1,144z"/>
		<path class="st0" d="M534,500c63-28,101.32-65.34,168-52c17.35,3.47,48,20,48,52H534z"/>
		<path class="st5" d="M659,57c-28-2-27,26-1,39c16.8,8.4,49,30,55,14S690.07,59.22,659,57z"/>
		<g class="st2">
			<g>
				<path class="st6" d="M756.48,319.86c-9.13,6.46-21.3,6.13-30.82,0.58c-9.74-5.67-15.54-16.29-17.88-27.03
					c-5.06-23.14,4.55-48.55,12.4-70.07c4.09-11.21,8.72-22.22,13.88-32.98c2.46-5.14,5.05-10.22,7.74-15.24
					c2.62-4.87,5.19-11.53,8.91-15.63c1.38-1.53,2.15-7.04,6.67-1.66c0.72,0.85,0.86,2.29,1.14,3.38c0.79,3.07,1.11,6.41,1.6,9.54
					c1.09,6.94,2.01,13.91,2.78,20.89c1.33,12.18,2.18,24.41,2.54,36.65c0.83,28.3-0.99,56.64-5.32,84.62
					c-0.15,0.94,1.3,1.35,1.45,0.4c4.5-29.07,6.33-58.51,5.28-87.91c-0.54-15.14-1.83-30.26-3.85-45.27
					c-0.86-6.39-1.53-13.03-3.02-19.31c-0.62-2.62-1.92-6.65-5.2-6.83c-3.7-0.2-5.75,5.41-7.19,7.85
					c-3.65,6.2-7.13,12.51-10.41,18.92c-6.05,11.8-11.47,23.93-16.22,36.31c-5,13.01-9.46,26.35-12.73,39.9
					c-2.95,12.25-4.62,25.18-1.72,37.61c2.63,11.29,9.13,22.41,19.69,27.89c9.82,5.09,21.88,5.2,31.05-1.29
					C758.01,320.6,757.27,319.3,756.48,319.86L756.48,319.86z"/>
			</g>
		</g>
		<g class="st2">
			<g>
				<path class="st7" d="M786.51,34.3c-13.65,6.72-28.28,10.87-43.18,13.78c-14.17,2.77-31.79,7.03-45.26-0.31
					c-5.91-3.22-11.03-8.9-12.38-15.64c-1.72-8.58,4.23-15.83,8.61-22.58c8.65-13.33,17.31-26.66,25.96-39.99
					c0.53-0.81-0.77-1.56-1.3-0.76c-10.36,15.95-21.41,31.64-31.12,48C681.19,28.02,684,40,694.8,47.49
					c12.59,8.74,29.5,5.52,43.54,3.03c16.88-2.99,33.5-7.33,48.94-14.93C788.14,35.16,787.38,33.87,786.51,34.3L786.51,34.3z"/>
			</g>
		</g>
		<path class="st8" d="M629,51c-5.33,3.55,0,13,8,7C642.12,54.16,635,47,629,51z"/>
		<path class="st8" d="M15.35,374.25c-3.62,2.41,0,8.82,5.43,4.75C24.26,376.39,19.43,371.53,15.35,374.25z"/>
		<path class="st9" d="M269,445c-17.63-5.12-33,42-0.53,34.49C293.45,473.72,300,454,269,445z"/>
		<path class="st9" d="M544-17c-17.94,3.9,16,43,40,34S567-22,544-17z"/>
		<path class="st5" d="M236-9c-3.29,26.36,113,41,148,1C405.27-32.31,236-9,236-9z"/>
		<g class="st2">
			<g>
				<g>
					<path class="st6" d="M319.92,40.01c1.13,0.4,2.25,0.8,3.38,1.2c0.91,0.32,1.3-1.13,0.4-1.45c-1.13-0.4-2.25-0.8-3.38-1.2
						C319.41,38.24,319.02,39.69,319.92,40.01L319.92,40.01z"/>
				</g>
			</g>
			<g>
				<g>
					<path class="st6" d="M405.94,23.49c1.51,0.38,3.02,0.76,4.54,1.14c0.94,0.24,1.34-1.21,0.4-1.45
						c-1.51-0.38-3.02-0.76-4.54-1.14C405.4,21.81,405,23.26,405.94,23.49L405.94,23.49z"/>
				</g>
			</g>
			<g>
				<g>
					<path class="st6" d="M470.86,60.65c1.89,0.4,3.77,0.79,5.66,1.19c0.94,0.2,1.34-1.25,0.4-1.45c-1.89-0.4-3.77-0.79-5.66-1.19
						C470.31,59,469.91,60.45,470.86,60.65L470.86,60.65z"/>
				</g>
			</g>
		</g>
		<path class="st4" d="M773,413c13.5-29.01-50.26-52.55-64.7-36.02C693.86,393.5,720.72,409.49,731,414
			C754.48,424.3,768.48,422.71,773,413z"/>
		<g class="st2">
			<g>
				<g>
					<path class="st10" d="M229.36,35.51c-1.75-1.66-3.52-3.3-5.28-4.95c-0.7-0.66-1.77,0.4-1.06,1.06
						c1.76,1.65,3.53,3.29,5.28,4.95C228.99,37.24,230.06,36.18,229.36,35.51L229.36,35.51z"/>
				</g>
			</g>
			<g>
				<g>
					<path class="st10" d="M214.96-0.74c-1.31-1.25-2.62-2.5-3.93-3.74c-0.7-0.67-1.76,0.39-1.06,1.06c1.31,1.25,2.62,2.5,3.93,3.74
						C214.6,0.98,215.66-0.07,214.96-0.74L214.96-0.74z"/>
				</g>
			</g>
			<g>
				<g>
					<path class="st10" d="M217.09,15.84c-1.3-1.26-2.6-2.52-3.9-3.78c-0.69-0.67-1.76,0.39-1.06,1.06c1.3,1.26,2.6,2.52,3.9,3.78
						C216.72,17.57,217.78,16.51,217.09,15.84L217.09,15.84z"/>
				</g>
			</g>
			<g>
				<g>
					<path class="st10" d="M243.01,39.55c-1.31-1.25-2.62-2.5-3.93-3.74c-0.7-0.67-1.76,0.39-1.06,1.06
						c1.31,1.25,2.62,2.5,3.93,3.74C242.65,41.28,243.71,40.22,243.01,39.55L243.01,39.55z"/>
				</g>
			</g>
			<g>
				<g>
					<path class="st10" d="M245.13,56.13c-1.3-1.26-2.6-2.52-3.9-3.78c-0.69-0.67-1.76,0.39-1.06,1.06c1.3,1.26,2.6,2.52,3.9,3.78
						C244.77,57.86,245.83,56.8,245.13,56.13L245.13,56.13z"/>
				</g>
			</g>
		</g>
		<g class="st2">
			<g>
				<g>
					<path class="st10" d="M490.17,505.35c2.59-2.52,5.19-5.04,7.78-7.57c0.69-0.67-0.37-1.73-1.06-1.06
						c-2.59,2.52-5.19,5.04-7.78,7.57C488.41,504.97,489.48,506.03,490.17,505.35L490.17,505.35z"/>
				</g>
			</g>
			<g>
				<g>
					<path class="st10" d="M499.14,486.19c1.69-1.72,3.38-3.44,5.07-5.16c0.68-0.69-0.38-1.75-1.06-1.06
						c-1.69,1.72-3.38,3.44-5.07,5.16C497.41,485.82,498.47,486.89,499.14,486.19L499.14,486.19z"/>
				</g>
			</g>
			<g>
				<g>
					<path class="st10" d="M514.14,498.19c1.69-1.72,3.38-3.44,5.07-5.16c0.68-0.69-0.38-1.75-1.06-1.06
						c-1.69,1.72-3.38,3.44-5.07,5.16C512.41,497.82,513.47,498.89,514.14,498.19L514.14,498.19z"/>
				</g>
			</g>
			<g>
				<g>
					<path class="st10" d="M521.03,476.1c1.28-1.28,2.56-2.56,3.84-3.84c0.68-0.68-0.38-1.74-1.06-1.06
						c-1.28,1.28-2.56,2.56-3.84,3.84C519.28,475.72,520.34,476.78,521.03,476.1L521.03,476.1z"/>
				</g>
			</g>
		</g>
		<path class="st11" d="M504,101c-38.39,4.41-51,77,40,63S565,94,504,101z"/>
		<path class="st12" d="M314.31,443.84c-10.42,1.2-12.03,27.11,10.85,17.09C329.5,459.03,330.86,441.94,314.31,443.84z"/>
		<path class="st13" d="M56.69,152.75c-18.08,2.08-20.89,47.06,18.84,29.68C83.07,179.14,85.42,149.46,56.69,152.75z"/>
		<g class="st2">
			<g>
				<g>
					<path class="st7" d="M690.5,160.87c-1.18,1.95-2.37,3.9-3.55,5.86c-0.5,0.83,0.79,1.58,1.3,0.76c1.18-1.95,2.37-3.9,3.55-5.86
						C692.29,160.8,691,160.04,690.5,160.87L690.5,160.87z"/>
				</g>
			</g>
			<g>
				<g>
					<path class="st7" d="M690.44,176.76c-1.33,1.64-2.66,3.27-3.99,4.91c-0.6,0.74,0.45,1.81,1.06,1.06
						c1.33-1.64,2.66-3.27,3.99-4.91C692.11,177.08,691.05,176.02,690.44,176.76L690.44,176.76z"/>
				</g>
			</g>
			<g>
				<g>
					<path class="st7" d="M686.6,192.18c-1.38,1.59-2.76,3.19-4.14,4.78c-0.63,0.73,0.43,1.79,1.06,1.06
						c1.38-1.59,2.76-3.19,4.14-4.78C688.29,192.52,687.23,191.45,686.6,192.18L686.6,192.18z"/>
				</g>
			</g>
		</g>
		<g class="st2">
			<g>
				<path class="st3" d="M606.33,411.63c14.97,16.06,44.88,6.96,56.48-8.77c12.53-16.99,4.17-41.81-15.43-48.89
					c-0.91-0.33-1.3,1.12-0.4,1.45c18.99,6.87,26.57,31.06,14.15,47.15c-11.25,14.58-39.58,23.19-53.74,8
					C606.73,409.86,605.67,410.92,606.33,411.63L606.33,411.63z"/>
			</g>
		</g>
		<g class="st2">
			<g>
				<path class="st3" d="M150.73,59.04c-14.97-16.06-44.88-6.96-56.48,8.77c-12.53,16.99-4.17,41.81,15.43,48.89
					c0.91,0.33,1.3-1.12,0.4-1.45C91.09,108.39,83.51,84.2,95.93,68.1c11.25-14.58,39.58-23.19,53.74-8
					C150.33,60.81,151.39,59.75,150.73,59.04L150.73,59.04z"/>
			</g>
		</g>
		<g class="st2">
			<g>
				<path class="st3" d="M19.24,168.69c-1.9-2.37-0.25-6.39,1.5-8.35c2.09-2.34,4.52-1.89,5.97,0.76c1.06,1.94,1.89,5.25,0.5,7.23
					C25.87,170.26,20.88,170.18,19.24,168.69c-0.71-0.65-1.78,0.41-1.06,1.06c2.23,2.03,7.94,2.2,9.99-0.19
					c2.27-2.65,1.15-7.41-0.64-10c-5.09-7.34-13.76,4.7-9.35,10.19C18.79,170.51,19.84,169.44,19.24,168.69z"/>
			</g>
		</g>
		<g class="st2">
			<path class="st14" d="M576.71,73.22c-2.76-3.02,0.52-10.66,4.56-11.28c4.2-0.64,7.13,8.39,4.11,11.38
				C583.84,74.84,578.14,74.79,576.71,73.22z"/>
		</g>
		<g class="st2">
			<g>
				<path class="st3" d="M-5.04-13.66C-21.16-1.84-15.17,22.48,2.1,29.55c19.74,8.07,40.2-5.4,47.64-23.88
					c3.2-7.95,3.74-19.21-5.69-22.97c-8.62-3.44-19.29,0.59-25.24,7.18c-6.1,6.77-7.36,16.54-1.54,23.9c4.64,5.87,12.91,9.3,20,5.86
					c5.51-2.67,9.63-8.59,12.87-13.61c3.61-5.59,6.37-11.83,7.24-18.47c1.41-10.81-2.8-22.15-12.36-27.89
					c-0.83-0.5-1.58,0.8-0.76,1.3C62.34-28.19,56.62-4.65,46.01,9.27c-5.59,7.34-13.12,13.49-22.4,8.07
					C15.3,12.49,12.54,2.36,17.53-5.91c4.56-7.57,14.41-12.44,23.21-10.78C52.28-14.5,51.58-2.02,47.79,6.44
					c-6.91,15.42-23.01,27.22-40.4,23.21c-9.09-2.1-17.15-8.41-19.59-17.65c-2.35-8.88,0.4-18.84,7.93-24.36
					C-3.51-12.93-4.26-14.24-5.04-13.66L-5.04-13.66z"/>
			</g>
		</g>
	</g>
</g>
</svg>
