<?xml version="1.0" encoding="utf-8"?>
<!-- Generator: Adobe Illustrator 24.0.1, SVG Export Plug-In . SVG Version: 6.00 Build 0)  -->
<svg version="1.1" id="Layer_1" xmlns="http://www.w3.org/2000/svg" xmlns:xlink="http://www.w3.org/1999/xlink" x="0px" y="0px"
	 viewBox="0 0 750 500" style="enable-background:new 0 0 750 500;" xml:space="preserve">
<style type="text/css">
	.st0{clip-path:url(#SVGID_2_);}
	.st1{fill:none;stroke:#C1B9B9;stroke-width:2;stroke-miterlimit:10;}
	.st2{opacity:0.7;}
	.st3{fill:#FFFFFF;}
	.st4{fill:#FFC238;}
	.st5{fill:#C1B9B9;}
	.st6{fill:none;stroke:#FFC238;stroke-width:2;stroke-miterlimit:10;}
	.st7{opacity:0.5;}
	.st8{opacity:0.1;fill:#C1B9B9;enable-background:new    ;}
</style>
<title>5397805</title>
<g>
	<g id="OBJECTS">
		<g>
			<defs>
				<rect id="SVGID_1_" width="750" height="500"/>
			</defs>
			<clipPath id="SVGID_2_">
				<use xlink:href="#SVGID_1_"  style="overflow:visible;"/>
			</clipPath>
			<g class="st0">
				<path class="st1" d="M52.9,126.4c5.2,0,5.2,12,10.3,12c5.2,0,5.2-12,10.3-12c5.2,0,5.2,12,10.3,12c5.2,0,5.2-12,10.3-12
					c5.2,0,5.2,12,10.3,12c5.2,0,5.2-12,10.3-12s5.2,12,10.3,12"/>
				<path class="st1" d="M132.8,390.8c5.2,0,5.2,14,10.3,14s5.2-14,10.3-14c5.2,0,5.2,14,10.3,14c5.2,0,5.2-14,10.3-14
					c5.2,0,5.2,14,10.3,14c5.2,0,5.2-14,10.3-14s5.2,14,10.3,14"/>
				<path class="st1" d="M538.8,202.7c5.2,0,5.2,14,10.3,14s5.2-14,10.3-14c5.2,0,5.2,14,10.3,14c5.2,0,5.2-14,10.3-14
					c5.2,0,5.2,14,10.3,14c5.2,0,5.2-14,10.3-14s5.2,14,10.3,14"/>
				<path class="st1" d="M516.5,427.8c5.2,0,5.2,12,10.3,12c5.2,0,5.2-12,10.3-12c5.2,0,5.2,12,10.3,12c5.2,0,5.2-12,10.3-12
					c5.2,0,5.2,12,10.3,12c5.2,0,5.2-12,10.3-12s5.2,12,10.3,12"/>
				<g class="st2">
					
						<image style="overflow:visible;opacity:0.21;enable-background:new    ;" width="716" height="716" xlink:href="CE94B301.png"  transform="matrix(0.24 0 0 0.24 -27.8077 158.595)">
					</image>
					<circle class="st3" cx="55.1" cy="244.5" r="76.9"/>
				</g>
				<g class="st2">
					
						<image style="overflow:visible;opacity:0.21;enable-background:new    ;" width="716" height="716" xlink:href="CE94B303.png"  transform="matrix(0.24 0 0 0.24 612.6721 8.2962)">
					</image>
					<circle class="st3" cx="695.5" cy="94.2" r="76.9"/>
				</g>
				<g class="st2">
					
						<image style="overflow:visible;opacity:0.21;enable-background:new    ;" width="505" height="505" xlink:href="CE94B306.png"  transform="matrix(0.24 0 0 0.24 327.0017 418.8395)">
					</image>
					<circle class="st3" cx="384.5" cy="479.4" r="51.5"/>
				</g>
				<polygon class="st4" points="155.2,115.9 150.7,111.3 155.2,106.8 152.8,104.4 148.2,108.9 143.7,104.4 141.3,106.8 
					145.8,111.3 141.3,115.9 143.7,118.3 148.2,113.8 152.8,118.3 				"/>
				<polygon class="st4" points="132,427.7 127.5,423.1 132,418.5 129.6,416.1 125.1,420.7 120.5,416.1 118.1,418.5 122.6,423.1 
					118.1,427.7 120.5,430.1 125.1,425.5 129.6,430.1 				"/>
				<polygon class="st4" points="629.1,188 624.5,183.5 629.1,178.9 626.7,176.5 622.1,181.1 617.6,176.5 615.1,178.9 619.7,183.5 
					615.1,188 617.6,190.5 622.1,185.9 626.7,190.5 				"/>
				<polygon class="st1" points="595.1,63.8 595.1,60 591.2,60 591.2,59.2 595.1,59.2 595.1,55.3 595.9,55.3 595.9,59.2 599.7,59.2 
					599.7,60 595.9,60 595.9,63.8 				"/>
				<polygon class="st1" points="155.3,29.6 155.3,25.8 151.5,25.8 151.5,25 155.3,25 155.3,21.1 156.2,21.1 156.2,25 160,25 
					160,25.8 156.2,25.8 156.2,29.6 				"/>
				<polygon class="st1" points="52.1,474.2 52.1,470.3 48.3,470.3 48.3,469.5 52.1,469.5 52.1,465.7 52.9,465.7 52.9,469.5 
					56.8,469.5 56.8,470.3 52.9,470.3 52.9,474.2 				"/>
				<polygon class="st1" points="636.3,312.7 636.3,308.9 632.5,308.9 632.5,308 636.3,308 636.3,304.2 637.1,304.2 637.1,308 
					641,308 641,308.9 637.1,308.9 637.1,312.7 				"/>
				<polygon class="st1" points="730.8,483.6 730.8,479.8 726.9,479.8 726.9,478.9 730.8,478.9 730.8,475.1 731.6,475.1 
					731.6,478.9 735.4,478.9 735.4,479.8 731.6,479.8 731.6,483.6 				"/>
				<polygon class="st1" points="20.9,213.9 20.9,210.1 17.1,210.1 17.1,209.3 20.9,209.3 20.9,205.4 21.7,205.4 21.7,209.3 
					25.6,209.3 25.6,210.1 21.7,210.1 21.7,213.9 				"/>
				<polygon class="st4" points="695.2,376.1 690.7,371.6 695.2,367 692.8,364.6 688.2,369.1 683.7,364.6 681.3,367 685.8,371.6 
					681.3,376.1 683.7,378.6 688.2,374 692.8,378.6 				"/>
				<circle class="st5" cx="133.2" cy="450.6" r="1.3"/>
				<circle class="st5" cx="140.1" cy="450.6" r="1.3"/>
				<circle class="st5" cx="147" cy="450.6" r="1.3"/>
				<circle class="st5" cx="153.8" cy="450.6" r="1.3"/>
				<circle class="st5" cx="160.7" cy="450.6" r="1.3"/>
				<circle class="st5" cx="167.6" cy="450.6" r="1.3"/>
				<circle class="st5" cx="174.4" cy="450.6" r="1.3"/>
				<circle class="st5" cx="181.3" cy="450.6" r="1.3"/>
				<circle class="st5" cx="188.2" cy="450.6" r="1.3"/>
				<circle class="st5" cx="195.1" cy="450.6" r="1.3"/>
				<circle class="st5" cx="201.9" cy="450.6" r="1.3"/>
				<circle class="st5" cx="208.8" cy="450.6" r="1.3"/>
				<circle class="st5" cx="215.7" cy="450.6" r="1.3"/>
				<circle class="st5" cx="222.5" cy="450.6" r="1.3"/>
				<circle class="st5" cx="133.2" cy="457.5" r="1.3"/>
				<circle class="st5" cx="140.1" cy="457.5" r="1.3"/>
				<circle class="st5" cx="147" cy="457.5" r="1.3"/>
				<circle class="st5" cx="153.8" cy="457.5" r="1.3"/>
				<circle class="st5" cx="160.7" cy="457.5" r="1.3"/>
				<circle class="st5" cx="167.6" cy="457.5" r="1.3"/>
				<circle class="st5" cx="174.4" cy="457.5" r="1.3"/>
				<circle class="st5" cx="181.3" cy="457.5" r="1.3"/>
				<circle class="st5" cx="188.2" cy="457.5" r="1.3"/>
				<circle class="st5" cx="195.1" cy="457.5" r="1.3"/>
				<circle class="st5" cx="201.9" cy="457.5" r="1.3"/>
				<circle class="st5" cx="208.8" cy="457.5" r="1.3"/>
				<circle class="st5" cx="215.7" cy="457.5" r="1.3"/>
				<circle class="st5" cx="222.5" cy="457.5" r="1.3"/>
				<circle class="st5" cx="133.2" cy="464.3" r="1.3"/>
				<circle class="st5" cx="140.1" cy="464.3" r="1.3"/>
				<circle class="st5" cx="147" cy="464.3" r="1.3"/>
				<circle class="st5" cx="153.8" cy="464.3" r="1.3"/>
				<circle class="st5" cx="160.7" cy="464.3" r="1.3"/>
				<circle class="st5" cx="167.6" cy="464.3" r="1.3"/>
				<circle class="st5" cx="174.4" cy="464.3" r="1.3"/>
				<circle class="st5" cx="181.3" cy="464.3" r="1.3"/>
				<circle class="st5" cx="188.2" cy="464.3" r="1.3"/>
				<circle class="st5" cx="195.1" cy="464.3" r="1.3"/>
				<circle class="st5" cx="201.9" cy="464.3" r="1.3"/>
				<circle class="st5" cx="208.8" cy="464.3" r="1.3"/>
				<circle class="st5" cx="215.7" cy="464.3" r="1.3"/>
				<circle class="st5" cx="222.5" cy="464.3" r="1.3"/>
				<circle class="st5" cx="133.2" cy="471.2" r="1.3"/>
				<circle class="st5" cx="140.1" cy="471.2" r="1.3"/>
				<circle class="st5" cx="147" cy="471.2" r="1.3"/>
				<circle class="st5" cx="153.8" cy="471.2" r="1.3"/>
				<circle class="st5" cx="160.7" cy="471.2" r="1.3"/>
				<circle class="st5" cx="167.6" cy="471.2" r="1.3"/>
				<circle class="st5" cx="174.4" cy="471.2" r="1.3"/>
				<circle class="st5" cx="181.3" cy="471.2" r="1.3"/>
				<circle class="st5" cx="188.2" cy="471.2" r="1.3"/>
				<circle class="st5" cx="195.1" cy="471.2" r="1.3"/>
				<circle class="st5" cx="201.9" cy="471.2" r="1.3"/>
				<circle class="st5" cx="208.8" cy="471.2" r="1.3"/>
				<circle class="st5" cx="215.7" cy="471.2" r="1.3"/>
				<circle class="st5" cx="222.5" cy="471.2" r="1.3"/>
				<circle class="st5" cx="133.2" cy="478.1" r="1.3"/>
				<circle class="st5" cx="140.1" cy="478.1" r="1.3"/>
				<circle class="st5" cx="147" cy="478.1" r="1.3"/>
				<circle class="st5" cx="153.8" cy="478.1" r="1.3"/>
				<circle class="st5" cx="160.7" cy="478.1" r="1.3"/>
				<circle class="st5" cx="167.6" cy="478.1" r="1.3"/>
				<circle class="st5" cx="174.4" cy="478.1" r="1.3"/>
				<circle class="st5" cx="181.3" cy="478.1" r="1.3"/>
				<circle class="st5" cx="188.2" cy="478.1" r="1.3"/>
				<circle class="st5" cx="195.1" cy="478.1" r="1.3"/>
				<circle class="st5" cx="201.9" cy="478.1" r="1.3"/>
				<circle class="st5" cx="208.8" cy="478.1" r="1.3"/>
				<circle class="st5" cx="215.7" cy="478.1" r="1.3"/>
				<circle class="st5" cx="222.5" cy="478.1" r="1.3"/>
				<circle class="st5" cx="133.2" cy="484.9" r="1.3"/>
				<circle class="st5" cx="140.1" cy="484.9" r="1.3"/>
				<circle class="st5" cx="147" cy="484.9" r="1.3"/>
				<circle class="st5" cx="153.8" cy="484.9" r="1.3"/>
				<circle class="st5" cx="160.7" cy="484.9" r="1.3"/>
				<circle class="st5" cx="167.6" cy="484.9" r="1.3"/>
				<circle class="st5" cx="174.4" cy="484.9" r="1.3"/>
				<circle class="st5" cx="181.3" cy="484.9" r="1.3"/>
				<circle class="st5" cx="188.2" cy="484.9" r="1.3"/>
				<circle class="st5" cx="195.1" cy="484.9" r="1.3"/>
				<circle class="st5" cx="201.9" cy="484.9" r="1.3"/>
				<circle class="st5" cx="208.8" cy="484.9" r="1.3"/>
				<circle class="st5" cx="215.7" cy="484.9" r="1.3"/>
				<circle class="st5" cx="222.5" cy="484.9" r="1.3"/>
				<circle class="st5" cx="133.2" cy="491.8" r="1.3"/>
				<circle class="st5" cx="140.1" cy="491.8" r="1.3"/>
				<circle class="st5" cx="147" cy="491.8" r="1.3"/>
				<circle class="st5" cx="153.8" cy="491.8" r="1.3"/>
				<circle class="st5" cx="160.7" cy="491.8" r="1.3"/>
				<circle class="st5" cx="167.6" cy="491.8" r="1.3"/>
				<circle class="st5" cx="174.4" cy="491.8" r="1.3"/>
				<circle class="st5" cx="181.3" cy="491.8" r="1.3"/>
				<circle class="st5" cx="188.2" cy="491.8" r="1.3"/>
				<circle class="st5" cx="195.1" cy="491.8" r="1.3"/>
				<circle class="st5" cx="201.9" cy="491.8" r="1.3"/>
				<circle class="st5" cx="208.8" cy="491.8" r="1.3"/>
				<circle class="st5" cx="215.7" cy="491.8" r="1.3"/>
				<circle class="st5" cx="222.5" cy="491.8" r="1.3"/>
				<circle class="st5" cx="133.2" cy="498.7" r="1.3"/>
				<circle class="st5" cx="140.1" cy="498.7" r="1.3"/>
				<circle class="st5" cx="147" cy="498.7" r="1.3"/>
				<circle class="st5" cx="153.8" cy="498.7" r="1.3"/>
				<circle class="st5" cx="160.7" cy="498.7" r="1.3"/>
				<circle class="st5" cx="167.6" cy="498.7" r="1.3"/>
				<circle class="st5" cx="174.4" cy="498.7" r="1.3"/>
				<circle class="st5" cx="181.3" cy="498.7" r="1.3"/>
				<circle class="st5" cx="188.2" cy="498.7" r="1.3"/>
				<circle class="st5" cx="195.1" cy="498.7" r="1.3"/>
				<circle class="st5" cx="201.9" cy="498.7" r="1.3"/>
				<circle class="st5" cx="208.8" cy="498.7" r="1.3"/>
				<circle class="st5" cx="215.7" cy="498.7" r="1.3"/>
				<circle class="st5" cx="222.5" cy="498.7" r="1.3"/>
				<circle class="st5" cx="133.2" cy="505.6" r="1.3"/>
				<circle class="st5" cx="140.1" cy="505.6" r="1.3"/>
				<circle class="st5" cx="147" cy="505.6" r="1.3"/>
				<circle class="st5" cx="153.8" cy="505.6" r="1.3"/>
				<circle class="st5" cx="160.7" cy="505.6" r="1.3"/>
				<circle class="st5" cx="167.6" cy="505.6" r="1.3"/>
				<circle class="st5" cx="174.4" cy="505.6" r="1.3"/>
				<circle class="st5" cx="181.3" cy="505.6" r="1.3"/>
				<circle class="st5" cx="188.2" cy="505.6" r="1.3"/>
				<circle class="st5" cx="195.1" cy="505.6" r="1.3"/>
				<circle class="st5" cx="201.9" cy="505.6" r="1.3"/>
				<circle class="st5" cx="208.8" cy="505.6" r="1.3"/>
				<circle class="st5" cx="215.7" cy="505.6" r="1.3"/>
				<circle class="st5" cx="222.5" cy="505.6" r="1.3"/>
				<circle class="st4" cx="514.3" cy="94.2" r="1.3"/>
				<circle class="st4" cx="521.2" cy="94.2" r="1.3"/>
				<circle class="st4" cx="528.1" cy="94.2" r="1.3"/>
				<circle class="st4" cx="534.9" cy="94.2" r="1.3"/>
				<circle class="st4" cx="541.8" cy="94.2" r="1.3"/>
				<circle class="st4" cx="548.7" cy="94.2" r="1.3"/>
				<circle class="st4" cx="555.5" cy="94.2" r="1.3"/>
				<circle class="st4" cx="562.4" cy="94.2" r="1.3"/>
				<circle class="st4" cx="569.3" cy="94.2" r="1.3"/>
				<circle class="st4" cx="576.2" cy="94.2" r="1.3"/>
				<circle class="st4" cx="583" cy="94.2" r="1.3"/>
				<circle class="st4" cx="589.9" cy="94.2" r="1.3"/>
				<circle class="st4" cx="596.8" cy="94.2" r="1.3"/>
				<circle class="st4" cx="603.6" cy="94.2" r="1.3"/>
				<circle class="st4" cx="610.5" cy="94.2" r="1.3"/>
				<circle class="st4" cx="617.4" cy="94.2" r="1.3"/>
				<circle class="st4" cx="624.3" cy="94.2" r="1.3"/>
				<circle class="st4" cx="631.1" cy="94.2" r="1.3"/>
				<circle class="st4" cx="638" cy="94.2" r="1.3"/>
				<circle class="st4" cx="644.9" cy="94.2" r="1.3"/>
				<circle class="st4" cx="651.7" cy="94.2" r="1.3"/>
				<circle class="st4" cx="658.6" cy="94.2" r="1.3"/>
				<circle class="st4" cx="665.5" cy="94.2" r="1.3"/>
				<circle class="st4" cx="672.4" cy="94.2" r="1.3"/>
				<circle class="st4" cx="679.2" cy="94.2" r="1.3"/>
				<circle class="st4" cx="514.3" cy="101" r="1.3"/>
				<circle class="st4" cx="521.2" cy="101" r="1.3"/>
				<circle class="st4" cx="528.1" cy="101" r="1.3"/>
				<circle class="st4" cx="534.9" cy="101" r="1.3"/>
				<circle class="st4" cx="541.8" cy="101" r="1.3"/>
				<circle class="st4" cx="548.7" cy="101" r="1.3"/>
				<circle class="st4" cx="555.5" cy="101" r="1.3"/>
				<circle class="st4" cx="562.4" cy="101" r="1.3"/>
				<circle class="st4" cx="569.3" cy="101" r="1.3"/>
				<circle class="st4" cx="576.2" cy="101" r="1.3"/>
				<circle class="st4" cx="583" cy="101" r="1.3"/>
				<circle class="st4" cx="589.9" cy="101" r="1.3"/>
				<circle class="st4" cx="596.8" cy="101" r="1.3"/>
				<circle class="st4" cx="603.6" cy="101" r="1.3"/>
				<circle class="st4" cx="610.5" cy="101" r="1.3"/>
				<circle class="st4" cx="617.4" cy="101" r="1.3"/>
				<circle class="st4" cx="624.3" cy="101" r="1.3"/>
				<circle class="st4" cx="631.1" cy="101" r="1.3"/>
				<circle class="st4" cx="638" cy="101" r="1.3"/>
				<circle class="st4" cx="644.9" cy="101" r="1.3"/>
				<circle class="st4" cx="651.7" cy="101" r="1.3"/>
				<circle class="st4" cx="658.6" cy="101" r="1.3"/>
				<circle class="st4" cx="665.5" cy="101" r="1.3"/>
				<circle class="st4" cx="672.4" cy="101" r="1.3"/>
				<circle class="st4" cx="679.2" cy="101" r="1.3"/>
				<circle class="st4" cx="514.3" cy="107.9" r="1.3"/>
				<circle class="st4" cx="521.2" cy="107.9" r="1.3"/>
				<circle class="st4" cx="528.1" cy="107.9" r="1.3"/>
				<circle class="st4" cx="534.9" cy="107.9" r="1.3"/>
				<circle class="st4" cx="541.8" cy="107.9" r="1.3"/>
				<circle class="st4" cx="548.7" cy="107.9" r="1.3"/>
				<circle class="st4" cx="555.5" cy="107.9" r="1.3"/>
				<circle class="st4" cx="562.4" cy="107.9" r="1.3"/>
				<circle class="st4" cx="569.3" cy="107.9" r="1.3"/>
				<circle class="st4" cx="576.2" cy="107.9" r="1.3"/>
				<circle class="st4" cx="583" cy="107.9" r="1.3"/>
				<circle class="st4" cx="589.9" cy="107.9" r="1.3"/>
				<circle class="st4" cx="596.8" cy="107.9" r="1.3"/>
				<circle class="st4" cx="603.6" cy="107.9" r="1.3"/>
				<circle class="st4" cx="610.5" cy="107.9" r="1.3"/>
				<circle class="st4" cx="617.4" cy="107.9" r="1.3"/>
				<circle class="st4" cx="624.3" cy="107.9" r="1.3"/>
				<circle class="st4" cx="631.1" cy="107.9" r="1.3"/>
				<circle class="st4" cx="638" cy="107.9" r="1.3"/>
				<circle class="st4" cx="644.9" cy="107.9" r="1.3"/>
				<circle class="st4" cx="651.7" cy="107.9" r="1.3"/>
				<circle class="st4" cx="658.6" cy="107.9" r="1.3"/>
				<circle class="st4" cx="665.5" cy="107.9" r="1.3"/>
				<circle class="st4" cx="672.4" cy="107.9" r="1.3"/>
				<circle class="st4" cx="679.2" cy="107.9" r="1.3"/>
				<circle class="st4" cx="514.3" cy="114.8" r="1.3"/>
				<circle class="st4" cx="521.2" cy="114.8" r="1.3"/>
				<circle class="st4" cx="528.1" cy="114.8" r="1.3"/>
				<circle class="st4" cx="534.9" cy="114.8" r="1.3"/>
				<circle class="st4" cx="541.8" cy="114.8" r="1.3"/>
				<circle class="st4" cx="548.7" cy="114.8" r="1.3"/>
				<circle class="st4" cx="555.5" cy="114.8" r="1.3"/>
				<circle class="st4" cx="562.4" cy="114.8" r="1.3"/>
				<circle class="st4" cx="569.3" cy="114.8" r="1.3"/>
				<circle class="st4" cx="576.2" cy="114.8" r="1.3"/>
				<circle class="st4" cx="583" cy="114.8" r="1.3"/>
				<circle class="st4" cx="589.9" cy="114.8" r="1.3"/>
				<circle class="st4" cx="596.8" cy="114.8" r="1.3"/>
				<circle class="st4" cx="603.6" cy="114.8" r="1.3"/>
				<circle class="st4" cx="610.5" cy="114.8" r="1.3"/>
				<circle class="st4" cx="617.4" cy="114.8" r="1.3"/>
				<circle class="st4" cx="624.3" cy="114.8" r="1.3"/>
				<circle class="st4" cx="631.1" cy="114.8" r="1.3"/>
				<circle class="st4" cx="638" cy="114.8" r="1.3"/>
				<circle class="st4" cx="644.9" cy="114.8" r="1.3"/>
				<circle class="st4" cx="651.7" cy="114.8" r="1.3"/>
				<circle class="st4" cx="658.6" cy="114.8" r="1.3"/>
				<circle class="st4" cx="665.5" cy="114.8" r="1.3"/>
				<circle class="st4" cx="672.4" cy="114.8" r="1.3"/>
				<circle class="st4" cx="679.2" cy="114.8" r="1.3"/>
				<circle class="st4" cx="514.3" cy="121.6" r="1.3"/>
				<circle class="st4" cx="521.2" cy="121.6" r="1.3"/>
				<circle class="st4" cx="528.1" cy="121.6" r="1.3"/>
				<circle class="st4" cx="534.9" cy="121.6" r="1.3"/>
				<circle class="st4" cx="541.8" cy="121.6" r="1.3"/>
				<circle class="st4" cx="548.7" cy="121.6" r="1.3"/>
				<circle class="st4" cx="555.5" cy="121.6" r="1.3"/>
				<circle class="st4" cx="562.4" cy="121.6" r="1.3"/>
				<circle class="st4" cx="569.3" cy="121.6" r="1.3"/>
				<circle class="st4" cx="576.2" cy="121.6" r="1.3"/>
				<circle class="st4" cx="583" cy="121.6" r="1.3"/>
				<circle class="st4" cx="589.9" cy="121.6" r="1.3"/>
				<circle class="st4" cx="596.8" cy="121.6" r="1.3"/>
				<circle class="st4" cx="603.6" cy="121.6" r="1.3"/>
				<circle class="st4" cx="610.5" cy="121.6" r="1.3"/>
				<circle class="st4" cx="617.4" cy="121.6" r="1.3"/>
				<circle class="st4" cx="624.3" cy="121.6" r="1.3"/>
				<circle class="st4" cx="631.1" cy="121.6" r="1.3"/>
				<circle class="st4" cx="638" cy="121.6" r="1.3"/>
				<circle class="st4" cx="644.9" cy="121.6" r="1.3"/>
				<circle class="st4" cx="651.7" cy="121.6" r="1.3"/>
				<circle class="st4" cx="658.6" cy="121.6" r="1.3"/>
				<circle class="st4" cx="665.5" cy="121.6" r="1.3"/>
				<circle class="st4" cx="672.4" cy="121.6" r="1.3"/>
				<circle class="st4" cx="679.2" cy="121.6" r="1.3"/>
				<circle class="st4" cx="514.3" cy="128.5" r="1.3"/>
				<circle class="st4" cx="521.2" cy="128.5" r="1.3"/>
				<circle class="st4" cx="528.1" cy="128.5" r="1.3"/>
				<circle class="st4" cx="534.9" cy="128.5" r="1.3"/>
				<circle class="st4" cx="541.8" cy="128.5" r="1.3"/>
				<circle class="st4" cx="548.7" cy="128.5" r="1.3"/>
				<circle class="st4" cx="555.5" cy="128.5" r="1.3"/>
				<circle class="st4" cx="562.4" cy="128.5" r="1.3"/>
				<circle class="st4" cx="569.3" cy="128.5" r="1.3"/>
				<circle class="st4" cx="576.2" cy="128.5" r="1.3"/>
				<circle class="st4" cx="583" cy="128.5" r="1.3"/>
				<circle class="st4" cx="589.9" cy="128.5" r="1.3"/>
				<circle class="st4" cx="596.8" cy="128.5" r="1.3"/>
				<circle class="st4" cx="603.6" cy="128.5" r="1.3"/>
				<circle class="st4" cx="610.5" cy="128.5" r="1.3"/>
				<circle class="st4" cx="617.4" cy="128.5" r="1.3"/>
				<circle class="st4" cx="624.3" cy="128.5" r="1.3"/>
				<circle class="st4" cx="631.1" cy="128.5" r="1.3"/>
				<circle class="st4" cx="638" cy="128.5" r="1.3"/>
				<circle class="st4" cx="644.9" cy="128.5" r="1.3"/>
				<circle class="st4" cx="651.7" cy="128.5" r="1.3"/>
				<circle class="st4" cx="658.6" cy="128.5" r="1.3"/>
				<circle class="st4" cx="665.5" cy="128.5" r="1.3"/>
				<circle class="st4" cx="672.4" cy="128.5" r="1.3"/>
				<circle class="st4" cx="679.2" cy="128.5" r="1.3"/>
				<circle class="st4" cx="514.3" cy="135.4" r="1.3"/>
				<circle class="st4" cx="521.2" cy="135.4" r="1.3"/>
				<circle class="st4" cx="528.1" cy="135.4" r="1.3"/>
				<circle class="st4" cx="534.9" cy="135.4" r="1.3"/>
				<circle class="st4" cx="541.8" cy="135.4" r="1.3"/>
				<circle class="st4" cx="548.7" cy="135.4" r="1.3"/>
				<circle class="st4" cx="555.5" cy="135.4" r="1.3"/>
				<circle class="st4" cx="562.4" cy="135.4" r="1.3"/>
				<circle class="st4" cx="569.3" cy="135.4" r="1.3"/>
				<circle class="st4" cx="576.2" cy="135.4" r="1.3"/>
				<circle class="st4" cx="583" cy="135.4" r="1.3"/>
				<circle class="st4" cx="589.9" cy="135.4" r="1.3"/>
				<circle class="st4" cx="596.8" cy="135.4" r="1.3"/>
				<circle class="st4" cx="603.6" cy="135.4" r="1.3"/>
				<circle class="st4" cx="610.5" cy="135.4" r="1.3"/>
				<circle class="st4" cx="617.4" cy="135.4" r="1.3"/>
				<circle class="st4" cx="624.3" cy="135.4" r="1.3"/>
				<circle class="st4" cx="631.1" cy="135.4" r="1.3"/>
				<circle class="st4" cx="638" cy="135.4" r="1.3"/>
				<circle class="st4" cx="644.9" cy="135.4" r="1.3"/>
				<circle class="st4" cx="651.7" cy="135.4" r="1.3"/>
				<circle class="st4" cx="658.6" cy="135.4" r="1.3"/>
				<circle class="st4" cx="665.5" cy="135.4" r="1.3"/>
				<circle class="st4" cx="672.4" cy="135.4" r="1.3"/>
				<circle class="st4" cx="679.2" cy="135.4" r="1.3"/>
				<circle class="st4" cx="514.3" cy="142.3" r="1.3"/>
				<circle class="st4" cx="521.2" cy="142.3" r="1.3"/>
				<circle class="st4" cx="528.1" cy="142.3" r="1.3"/>
				<circle class="st4" cx="534.9" cy="142.3" r="1.3"/>
				<circle class="st4" cx="541.8" cy="142.3" r="1.3"/>
				<circle class="st4" cx="548.7" cy="142.3" r="1.3"/>
				<circle class="st4" cx="555.5" cy="142.3" r="1.3"/>
				<circle class="st4" cx="562.4" cy="142.3" r="1.3"/>
				<circle class="st4" cx="569.3" cy="142.3" r="1.3"/>
				<circle class="st4" cx="576.2" cy="142.3" r="1.3"/>
				<circle class="st4" cx="583" cy="142.3" r="1.3"/>
				<circle class="st4" cx="589.9" cy="142.3" r="1.3"/>
				<circle class="st4" cx="596.8" cy="142.3" r="1.3"/>
				<circle class="st4" cx="603.6" cy="142.3" r="1.3"/>
				<circle class="st4" cx="610.5" cy="142.3" r="1.3"/>
				<circle class="st4" cx="617.4" cy="142.3" r="1.3"/>
				<circle class="st4" cx="624.3" cy="142.3" r="1.3"/>
				<circle class="st4" cx="631.1" cy="142.3" r="1.3"/>
				<circle class="st4" cx="638" cy="142.3" r="1.3"/>
				<circle class="st4" cx="644.9" cy="142.3" r="1.3"/>
				<circle class="st4" cx="651.7" cy="142.3" r="1.3"/>
				<circle class="st4" cx="658.6" cy="142.3" r="1.3"/>
				<circle class="st4" cx="665.5" cy="142.3" r="1.3"/>
				<circle class="st4" cx="672.4" cy="142.3" r="1.3"/>
				<circle class="st4" cx="679.2" cy="142.3" r="1.3"/>
				<circle class="st4" cx="514.3" cy="149.1" r="1.3"/>
				<circle class="st4" cx="521.2" cy="149.1" r="1.3"/>
				<circle class="st4" cx="528.1" cy="149.1" r="1.3"/>
				<circle class="st4" cx="534.9" cy="149.1" r="1.3"/>
				<circle class="st4" cx="541.8" cy="149.1" r="1.3"/>
				<circle class="st4" cx="548.7" cy="149.1" r="1.3"/>
				<circle class="st4" cx="555.5" cy="149.1" r="1.3"/>
				<circle class="st4" cx="562.4" cy="149.1" r="1.3"/>
				<circle class="st4" cx="569.3" cy="149.1" r="1.3"/>
				<circle class="st4" cx="576.2" cy="149.1" r="1.3"/>
				<circle class="st4" cx="583" cy="149.1" r="1.3"/>
				<circle class="st4" cx="589.9" cy="149.1" r="1.3"/>
				<circle class="st4" cx="596.8" cy="149.1" r="1.3"/>
				<circle class="st4" cx="603.6" cy="149.1" r="1.3"/>
				<circle class="st4" cx="610.5" cy="149.1" r="1.3"/>
				<circle class="st4" cx="617.4" cy="149.1" r="1.3"/>
				<circle class="st4" cx="624.3" cy="149.1" r="1.3"/>
				<circle class="st4" cx="631.1" cy="149.1" r="1.3"/>
				<circle class="st4" cx="638" cy="149.1" r="1.3"/>
				<circle class="st4" cx="644.9" cy="149.1" r="1.3"/>
				<circle class="st4" cx="651.7" cy="149.1" r="1.3"/>
				<circle class="st4" cx="658.6" cy="149.1" r="1.3"/>
				<circle class="st4" cx="665.5" cy="149.1" r="1.3"/>
				<circle class="st4" cx="672.4" cy="149.1" r="1.3"/>
				<circle class="st4" cx="679.2" cy="149.1" r="1.3"/>
				<polygon class="st4" points="133.3,317.1 118.5,342.7 148,342.7 				"/>
				<polygon class="st4" points="584.3,309.3 547.1,373.7 621.5,373.7 				"/>
				<g class="st2">
					
						<image style="overflow:visible;opacity:0.21;enable-background:new    ;" width="435" height="491" xlink:href="CE94B307.png"  transform="matrix(0.24 0 0 0.24 650.9147 382.3196)">
					</image>
					<polygon class="st3" points="749.2,438.1 662.9,388.3 662.9,487.9 					"/>
				</g>
				<g class="st2">
					
						<image style="overflow:visible;opacity:0.21;enable-background:new    ;" width="324" height="351" xlink:href="CE94B302.png"  transform="matrix(0.24 0 0 0.24 55.613 -4.2429)">
					</image>
					<polygon class="st3" points="122.3,1.8 67.6,39.1 127.3,67.8 					"/>
				</g>
				<path class="st6" d="M733.3,341.9c-32.5,0-58.8-26.3-58.8-58.8s26.3-58.8,58.8-58.8"/>
				<path class="st6" d="M273.4,59.6c0,32.5-26.3,58.8-58.8,58.8s-58.8-26.3-58.8-58.8"/>
				<circle class="st1" cx="736" cy="283.5" r="24.9"/>
				<polygon class="st4" points="-99,387.5 -100.9,387.4 -87,366.6 -85.2,366.6 				"/>
				<polygon class="st4" points="-88.6,387.6 -90.5,387.6 -76.7,366.7 -74.8,366.8 				"/>
				<polygon class="st4" points="-78.2,387.8 -80.1,387.7 -66.3,366.9 -64.4,366.9 				"/>
				<polygon class="st4" points="-67.8,387.9 -69.7,387.9 -55.9,367 -54,367.1 				"/>
				<polygon class="st4" points="-57.5,388.1 -59.3,388.1 -45.5,367.2 -43.6,367.2 				"/>
				<polygon class="st4" points="-47.1,388.3 -48.9,388.2 -35.1,367.4 -33.2,367.4 				"/>
				<polygon class="st4" points="-36.7,388.4 -38.5,388.4 -24.7,367.5 -22.8,367.5 				"/>
				<polygon class="st4" points="-26.3,388.6 -28.2,388.5 -14.3,367.7 -12.4,367.7 				"/>
				<polygon class="st4" points="-15.9,388.7 -17.8,388.7 -3.9,367.8 -2,367.9 				"/>
				<polygon class="st4" points="-5.5,388.9 -7.4,388.9 6.5,368 8.4,368 				"/>
				<polygon class="st4" points="4.9,389 3,389 16.9,368.2 18.8,368.2 				"/>
				<polygon class="st4" points="15.3,389.2 13.4,389.2 27.3,368.3 29.2,368.3 				"/>
				<polygon class="st4" points="25.7,389.4 23.8,389.3 37.7,368.5 39.6,368.5 				"/>
				<polygon class="st4" points="36.1,389.5 34.2,389.5 48.1,368.6 50,368.7 				"/>
				<polygon class="st4" points="46.5,389.7 44.6,389.7 58.5,368.8 60.4,368.8 				"/>
				<polygon class="st4" points="56.9,389.8 55,389.8 68.9,369 70.8,369 				"/>
				<polygon class="st4" points="67.3,390 65.4,390 79.3,369.1 81.2,369.1 				"/>
				<polygon class="st4" points="77.7,390.2 75.8,390.1 89.7,369.3 91.6,369.3 				"/>
				<polygon class="st4" points="88.1,390.3 86.2,390.3 100.1,369.4 102,369.5 				"/>
				<polygon class="st4" points="411.8,502.5 409.9,502.5 423.7,481.7 425.6,481.7 				"/>
				<polygon class="st4" points="422.2,502.7 420.3,502.7 434.1,481.8 436,481.8 				"/>
				<polygon class="st4" points="432.6,502.9 430.7,502.8 444.5,482 446.4,482 				"/>
				<polygon class="st4" points="442.9,503 441.1,503 454.9,482.1 456.8,482.2 				"/>
				<polygon class="st4" points="453.3,503.2 451.5,503.1 465.3,482.3 467.2,482.3 				"/>
				<polygon class="st4" points="463.7,503.3 461.8,503.3 475.7,482.4 477.6,482.5 				"/>
				<polygon class="st4" points="474.1,503.5 472.2,503.5 486.1,482.6 488,482.6 				"/>
				<polygon class="st4" points="484.5,503.7 482.6,503.6 496.5,482.8 498.4,482.8 				"/>
				<polygon class="st4" points="494.9,503.8 493,503.8 506.9,482.9 508.8,483 				"/>
				<polygon class="st4" points="505.3,504 503.4,503.9 517.3,483.1 519.2,483.1 				"/>
				<polygon class="st4" points="515.7,504.1 513.8,504.1 527.7,483.2 529.6,483.3 				"/>
				<polygon class="st4" points="526.1,504.3 524.2,504.3 538.1,483.4 540,483.4 				"/>
				<polygon class="st4" points="536.5,504.5 534.6,504.4 548.5,483.6 550.4,483.6 				"/>
				<polygon class="st4" points="546.9,504.6 545,504.6 558.9,483.7 560.8,483.7 				"/>
				<polygon class="st4" points="557.3,504.8 555.4,504.7 569.3,483.9 571.2,483.9 				"/>
				<polygon class="st4" points="567.7,504.9 565.8,504.9 579.7,484 581.6,484.1 				"/>
				<polygon class="st4" points="578.1,505.1 576.2,505.1 590.1,484.2 592,484.2 				"/>
				<polygon class="st4" points="588.5,505.2 586.6,505.2 600.5,484.4 602.4,484.4 				"/>
				<polygon class="st4" points="598.9,505.4 597,505.4 610.9,484.5 612.8,484.5 				"/>
				<polygon class="st4" points="182.2,10.4 180.3,10.4 194.2,-10.4 196.1,-10.4 				"/>
				<polygon class="st4" points="192.6,10.6 190.7,10.6 204.6,-10.3 206.5,-10.3 				"/>
				<polygon class="st4" points="203,10.8 201.1,10.7 215,-10.1 216.9,-10.1 				"/>
				<polygon class="st4" points="213.4,10.9 211.5,10.9 225.4,-10 227.3,-9.9 				"/>
				<polygon class="st4" points="223.8,11.1 221.9,11.1 235.8,-9.8 237.6,-9.8 				"/>
				<polygon class="st4" points="234.2,11.2 232.3,11.2 246.2,-9.6 248,-9.6 				"/>
				<polygon class="st4" points="244.6,11.4 242.7,11.4 256.5,-9.5 258.4,-9.5 				"/>
				<polygon class="st4" points="255,11.6 253.1,11.5 266.9,-9.3 268.8,-9.3 				"/>
				<polygon class="st4" points="265.4,11.7 263.5,11.7 277.3,-9.2 279.2,-9.1 				"/>
				<polygon class="st4" points="275.8,11.9 273.9,11.8 287.7,-9 289.6,-9 				"/>
				<circle class="st4" cx="214.6" cy="64.5" r="21.5"/>
				<circle class="st5" cx="50.8" cy="221.8" r="1.1"/>
				<circle class="st5" cx="62.8" cy="221.8" r="1.1"/>
				<circle class="st5" cx="74.7" cy="221.8" r="1.1"/>
				<circle class="st5" cx="86.6" cy="221.8" r="1.1"/>
				<circle class="st5" cx="98.6" cy="221.8" r="1.1"/>
				<circle class="st5" cx="110.5" cy="221.8" r="1.1"/>
				<circle class="st5" cx="122.5" cy="221.8" r="1.1"/>
				<circle class="st5" cx="134.4" cy="221.8" r="1.1"/>
				<circle class="st5" cx="146.3" cy="221.8" r="1.1"/>
				<circle class="st5" cx="158.3" cy="221.8" r="1.1"/>
				<circle class="st5" cx="35.1" cy="236" r="1.1"/>
				<circle class="st5" cx="47.1" cy="236" r="1.1"/>
				<circle class="st5" cx="59" cy="236" r="1.1"/>
				<circle class="st5" cx="71" cy="236" r="1.1"/>
				<circle class="st5" cx="82.9" cy="236" r="1.1"/>
				<circle class="st5" cx="94.8" cy="236" r="1.1"/>
				<circle class="st5" cx="106.8" cy="236" r="1.1"/>
				<circle class="st5" cx="118.7" cy="236" r="1.1"/>
				<circle class="st5" cx="130.7" cy="236" r="1.1"/>
				<circle class="st5" cx="142.6" cy="236" r="1.1"/>
				<circle class="st5" cx="50.8" cy="250.2" r="1.1"/>
				<circle class="st5" cx="62.8" cy="250.2" r="1.1"/>
				<circle class="st5" cx="74.7" cy="250.2" r="1.1"/>
				<circle class="st5" cx="86.6" cy="250.2" r="1.1"/>
				<circle class="st5" cx="98.6" cy="250.2" r="1.1"/>
				<circle class="st5" cx="110.5" cy="250.2" r="1.1"/>
				<circle class="st5" cx="122.5" cy="250.2" r="1.1"/>
				<circle class="st5" cx="134.4" cy="250.2" r="1.1"/>
				<circle class="st5" cx="146.3" cy="250.2" r="1.1"/>
				<circle class="st5" cx="158.3" cy="250.2" r="1.1"/>
				<circle class="st5" cx="35.1" cy="264.4" r="1.1"/>
				<circle class="st5" cx="47.1" cy="264.4" r="1.1"/>
				<circle class="st5" cx="59" cy="264.4" r="1.1"/>
				<circle class="st5" cx="71" cy="264.4" r="1.1"/>
				<circle class="st5" cx="82.9" cy="264.4" r="1.1"/>
				<circle class="st5" cx="94.8" cy="264.4" r="1.1"/>
				<circle class="st5" cx="106.8" cy="264.4" r="1.1"/>
				<circle class="st5" cx="118.7" cy="264.4" r="1.1"/>
				<circle class="st5" cx="130.7" cy="264.4" r="1.1"/>
				<circle class="st5" cx="142.6" cy="264.4" r="1.1"/>
				<g class="st7">
					<path class="st5" d="M792.8,197.8h-85.5c-0.6,0-1-0.4-1-1c0-0.6,0.4-1,1-1c0,0,0,0,0,0h85.5c0.6,0,1,0.4,1,1
						C793.8,197.3,793.3,197.8,792.8,197.8C792.8,197.8,792.8,197.8,792.8,197.8z"/>
				</g>
				<g class="st7">
					<path class="st5" d="M488.2,41h-53.3c-0.6,0-1-0.4-1-1s0.4-1,1-1h53.3c0.6,0,1,0.4,1,1S488.7,41,488.2,41z"/>
				</g>
				<g class="st7">
					<path class="st5" d="M65.1,423.4h-85.5c-0.6,0-1-0.4-1-1c0-0.6,0.4-1,1-1h85.5c0.6,0,1,0.4,1,1C66.1,423,65.7,423.4,65.1,423.4
						L65.1,423.4z"/>
				</g>
				<path class="st8" d="M733.7,93.4l-0.6-0.6c-2.3-2.3-6-2.3-8.2,0l-48.6,48.6c-2.3,2.3-2.3,6,0,8.2l0.6,0.6c2.3,2.3,2.3,6,0,8.2
					l-22.5,22.5c-6.3,6.3-6.3,16.6,0,23l0,0l7.4,7.4c2.3,2.3,2.3,6,0,8.2l-16.1,16.1c-2.3,2.3-2.3,6,0,8.2l0.6,0.6
					c2.3,2.3,6,2.3,8.2,0c0,0,0,0,0,0l57.6-57.6c2.3-2.3,2.3-6,0-8.2v0l-0.6-0.6c-2.3-2.3-2.3-6,0-8.2l52.4-52.4
					c6.3-6.3,6.3-16.6,0-23l0,0l-1-1c-5.8-5.8-15.1-5.8-20.9,0l0,0C739.6,95.7,735.9,95.7,733.7,93.4z"/>
				<path class="st8" d="M205.5,290.6l-0.6-0.6c-2.3-2.3-6-2.3-8.2,0h0l-25,25c-6.3,6.3-16.6,6.3-23,0l0,0c-6.3-6.3-6.3-16.6,0-23
					l47.3-47.3c6.3-6.3,6.3-16.6,0-23l0,0l0,0c-6.3-6.3-16.6-6.3-23,0l-83,83c-2.3,2.3-6,2.3-8.2,0c0,0,0,0,0,0l-0.6-0.6
					c-2.3-2.3-2.3-6,0-8.2l46.7-46.7c2.3-2.3,2.3-6,0-8.2c0,0,0,0,0,0l-0.6-0.6c-2.3-2.3-6-2.3-8.2,0c0,0,0,0,0,0l-83.2,83.2
					c-2.3,2.3-2.3,6,0,8.2c0,0,0,0,0,0l0.6,0.6c2.3,2.3,2.3,6,0,8.2c0,0,0,0,0,0l-21.1,21.1c-2.3,2.3-2.3,6,0,8.2l0.6,0.6
					c2.3,2.3,6,2.3,8.2,0c0,0,0,0,0,0l1.6-1.6c6.3-6.3,16.6-6.3,23,0c0,0,0,0,0,0l0,0c6.3,6.3,6.3,16.6,0,23c0,0,0,0,0,0L1.5,439.2
					c-6.3,6.3-6.3,16.6,0,23c0,0,0,0,0,0l0,0c6.3,6.3,16.6,6.3,23,0c0,0,0,0,0,0l106.4-106.4c2.3-2.3,6-2.3,8.2,0l0.6,0.6
					c2.3,2.3,6,2.3,8.2,0h0l57.6-57.6c2.5-2.1,3.1-5.4,1-7.9C206.3,290.7,206,290.5,205.5,290.6z"/>
				<path class="st8" d="M666.4,389.7l8.4-8.4c6.3-6.3,6.3-16.6,0-23l0,0c-6.3-6.3-16.6-6.3-23,0l-86.5,86.5c-6.3,6.3-6.3,16.6,0,23
					l0,0c6.3,6.3,16.6,6.3,23,0l24.5-24.5c2.3-2.3,6-2.3,8.2,0l0,0l0.6,0.6c2.3,2.3,2.3,6,0,8.2l-16,16c-2.3,2.3-2.3,6,0,8.2l0,0
					l0.6,0.6c2.3,2.3,6,2.3,8.2,0v0l51.1-51.1c2.3-2.3,6-2.3,8.2,0l0,0l0.6,0.6c2.3,2.3,6,2.3,8.2,0l0,0l27-27c2.3-2.3,2.3-6,0-8.2
					l0,0l-0.6-0.6c-2.3-2.3-2.3-6,0-8.2l15.8-15.8c2.3-2.3,2.3-6,0-8.2l-0.6-0.6c-2.3-2.3-6-2.3-8.2,0l0,0l-40.8,40.8
					c-2.3,2.3-6,2.3-8.2,0v0l-0.6-0.6C664.1,395.6,664.1,392,666.4,389.7C666.4,389.7,666.4,389.7,666.4,389.7z"/>
				<path class="st8" d="M54.5,48l8.4-8.4c6.3-6.3,6.3-16.6,0-23l0,0c-6.3-6.3-16.6-6.3-23,0c0,0,0,0,0,0l-86.5,86.5
					c-6.3,6.3-6.3,16.6,0,23l0,0c6.3,6.3,16.6,6.3,23,0c0,0,0,0,0,0l24.5-24.5c2.3-2.3,6-2.3,8.2,0c0,0,0,0,0,0l0.6,0.6
					c2.3,2.3,2.3,6,0,8.2l-16,16c-2.3,2.3-2.3,6,0,8.2c0,0,0,0,0,0l0.6,0.6c2.3,2.3,6,2.3,8.2,0c0,0,0,0,0,0l51.1-51.1
					c2.3-2.3,6-2.3,8.2,0c0,0,0,0,0,0l0.6,0.6c2.3,2.3,6,2.3,8.2,0l0,0l27-27c2.3-2.3,2.3-6,0-8.2c0,0,0,0,0,0l-0.6-0.6
					c-2.3-2.3-2.3-6,0-8.2c0,0,0,0,0,0L113,24.8c2.3-2.3,2.3-6,0-8.2l-0.6-0.6c-2.3-2.3-6-2.3-8.2,0c0,0,0,0,0,0L63.4,56.8
					c-2.3,2.3-6,2.3-8.2,0c0,0,0,0,0,0l-0.6-0.6C52.3,53.9,52.3,50.3,54.5,48z"/>
				<path class="st8" d="M277.3,407.6l-0.6-0.6c-2.3-2.3-6-2.3-8.2,0L229,446.5c-2.3,2.3-2.3,6,0,8.2h0l0.6,0.6c2.3,2.3,6,2.3,8.2,0
					h0l12.2-12.2c2.3-2.3,6-2.3,8.2,0l0,0l0.6,0.6c2.3,2.3,2.3,6,0,8.2l0,0l-44.7,44.7c-6.3,6.3-6.3,16.6,0,23l0,0
					c6.3,6.3,16.6,6.3,23,0l13.8-13.8c2.3-2.3,6-2.3,8.2,0l0,0l0.6,0.6c2.3,2.3,2.3,6,0,8.2l-3.8,3.8c-6.3,6.3-6.3,16.6,0,23
					l6.8,6.8c2.3,2.3,2.3,6,0,8.2h0l-10.9,10.9c-2.3,2.3-2.3,6,0,8.2h0l0.6,0.6c2.3,2.3,6,2.3,8.2,0l57.6-57.6c2.3-2.3,2.3-6,0-8.2
					l0,0l0,0c-2.3-2.3-2.3-6,0-8.2l31.1-31.1c6.3-6.3,6.3-16.6,0-23c0,0,0,0,0,0l0,0c-6.3-6.3-16.6-6.3-23,0c0,0,0,0,0,0l-4,4
					c-2.3,2.3-6,2.3-8.2,0l-0.6-0.6c-2.3-2.3-2.3-6,0-8.2l17-17c6.3-6.3,6.3-16.6,0-23c0,0,0,0,0,0l-7.4-7.4c-2.3-2.3-2.3-6,0-8.2
					l0,0l1.4-1.4c2.3-2.3,2.3-6,0-8.2l0,0l-0.6-0.6c-2.3-2.3-6-2.3-8.2,0l-30.3,30.3C283.3,409.9,279.6,409.9,277.3,407.6
					C277.3,407.6,277.3,407.6,277.3,407.6z"/>
				<path class="st8" d="M545.5-67.7l-0.6-0.6c-2.3-2.3-6-2.3-8.2,0c0,0,0,0,0,0l-39.5,39.5c-2.3,2.3-2.3,6,0,8.2c0,0,0,0,0,0
					l0.6,0.6c2.3,2.3,6,2.3,8.2,0c0,0,0,0,0,0l12.2-12.2c2.3-2.3,6-2.3,8.2,0c0,0,0,0,0,0l0.6,0.6c2.3,2.3,2.3,6,0,8.2c0,0,0,0,0,0
					l-44.7,44.7c-6.3,6.3-6.3,16.6,0,23v0l0,0c6.3,6.3,16.6,6.3,23,0c0,0,0,0,0,0l13.8-13.8c2.3-2.3,6-2.3,8.2,0c0,0,0,0,0,0
					l0.6,0.6c2.3,2.3,2.3,6,0,8.2c0,0,0,0,0,0l-3.8,3.8c-6.3,6.3-6.3,16.6,0,23v0l6.8,6.8c2.3,2.3,2.3,6,0,8.2L520,92
					c-2.3,2.3-2.3,6,0,8.2v0l0.6,0.6c2.3,2.3,6,2.3,8.2,0c0,0,0,0,0,0l57.6-57.6c2.3-2.3,2.3-6,0-8.2c0,0,0,0,0,0l0,0
					c-2.3-2.3-2.3-6,0-8.2c0,0,0,0,0,0l31.1-31.1c6.3-6.3,6.3-16.6,0-23c0,0,0,0,0,0l0,0c-6.3-6.3-16.6-6.3-23,0l-4,4
					c-2.3,2.3-6,2.3-8.2,0c0,0,0,0,0,0l-0.6-0.6c-2.3-2.3-2.3-6,0-8.2c0,0,0,0,0,0l17-17c6.3-6.3,6.3-16.6,0-23v0l-7.4-7.4
					c-2.3-2.3-2.3-6,0-8.2v0l1.4-1.4c2.3-2.3,2.3-6,0-8.2v0l-0.6-0.6c-2.3-2.3-6-2.3-8.2,0c0,0,0,0,0,0l-30.3,30.3
					C551.5-65.4,547.8-65.4,545.5-67.7z"/>
				<circle class="st8" cx="362.1" cy="398" r="8"/>
				<circle class="st8" cx="195.5" cy="347.6" r="6"/>
				<circle class="st8" cx="608.6" cy="271.8" r="6.2"/>
				<circle class="st8" cx="621.2" cy="21.1" r="3.9"/>
				
					<ellipse transform="matrix(0.3827 -0.9239 0.9239 0.3827 240.6245 393.1455)" class="st8" cx="414.5" cy="16.5" rx="4.6" ry="4.6"/>
				<circle class="st8" cx="307.3" cy="46.3" r="13.3"/>
				<circle class="st8" cx="140.7" cy="12.4" r="1.9"/>
				<circle class="st8" cx="18.6" cy="146.2" r="5.2"/>
				<path class="st4" d="M532.4,25.1h-58l29-50.2L532.4,25.1z M477.7,23.2h51.4l-25.7-44.6L477.7,23.2z"/>
			</g>
		</g>
	</g>
</g>
</svg>
