<?xml version="1.0" encoding="utf-8"?>
<!-- Generator: Adobe Illustrator 24.0.1, SVG Export Plug-In . SVG Version: 6.00 Build 0)  -->
<svg version="1.1" id="OBJECTS" xmlns="http://www.w3.org/2000/svg" xmlns:xlink="http://www.w3.org/1999/xlink" x="0px" y="0px"
	 viewBox="0 0 750 500" style="enable-background:new 0 0 750 500;" xml:space="preserve">
<style type="text/css">
	.st0{fill:#FFFFFF;}
	.st1{fill:none;stroke:#CFCFCF;stroke-width:1.41;stroke-linecap:round;stroke-linejoin:round;stroke-miterlimit:10;}
	.st2{fill:none;stroke:#CFCFCF;stroke-width:1.4516;stroke-linecap:round;stroke-linejoin:round;stroke-miterlimit:10;}
	.st3{fill:#CFCFCF;}
	.st4{fill:none;stroke:#CFCFCF;stroke-width:1.3927;stroke-linecap:round;stroke-linejoin:round;stroke-miterlimit:10;}
	.st5{fill:none;stroke:#FFFFFF;stroke-width:3.6134;stroke-linecap:round;stroke-linejoin:round;stroke-miterlimit:10;}
	.st6{fill:none;stroke:#CFCFCF;stroke-width:1.1901;stroke-linecap:round;stroke-linejoin:round;stroke-miterlimit:10;}
</style>
<g>
	<g>
		<path class="st0" d="M248.588,397.174c0,0-0.462,2.392,2.62,6.476c3.082,4.083,4.874,7.402,7.995,5.424
			c3.121-1.978-3.349-4.036-4.74-11.663C253.072,389.784,248.477,392.461,248.588,397.174z"/>
		<path class="st0" d="M304.844,406.839c0,0,2.324-0.731,4.452-5.383c2.128-4.652,4.196-7.806,0.972-9.612
			c-3.223-1.806-1.96,4.865-8.009,9.714C296.211,406.406,300.749,409.177,304.844,406.839z"/>
		<path class="st0" d="M271.305,421.149c-10.597,2.002-21.322-3.666-25.585-13.572c-0.806-1.873-1.443-3.975-1.803-6.32
			c-2.236-14.575-23.281-16.118-21.09-10.391c2.191,5.727,11.722,1.907,13.593,12.628c1.871,10.721,11.117,27.622,29.805,31.936
			c21.143,4.881,40.869-6.929,47.882-20.201c0.87-1.645,0.42-3.748-1.154-4.741c-1.421-0.897-3.532-0.977-6.289,2.297
			c-5.516,6.547-11.586,12.779-22.28,14.492c-9.209,1.476,4.088-7.553,7.433-10.261c3.345-2.708,6.543-8.405-0.724-6.283
			C283.72,412.886,280.224,419.465,271.305,421.149z"/>
	</g>
	<g>
		<g>
			<g>
				<g>
					<path class="st1" d="M203.565,390.506c-1.265,2.622-13.395-0.608-27.095-7.215c-13.7-6.607-23.78-14.088-22.516-16.71
						c1.265-2.622,13.395,0.608,27.095,7.215C194.749,380.402,204.83,387.884,203.565,390.506z"/>
					<path class="st1" d="M153.955,366.581l-1.634,3.389c-1.264,2.622,8.816,10.104,22.516,16.71
						c13.7,6.607,25.83,9.837,27.095,7.215l1.634-3.389"/>
				</g>
				<path class="st1" d="M153.893,373.336l-22.71,55.811c-1.563,3.841-0.604,8.27,2.458,11.066
					c4.456,4.068,12.393,9.154,25.158,10.703c3.95,0.479,7.815-1.401,9.835-4.829l30.052-51.017"/>
			</g>
			
				<ellipse transform="matrix(0.4344 -0.9007 0.9007 0.4344 -280.2057 387.5311)" class="st0" cx="168.46" cy="416.873" rx="16.76" ry="9.795"/>
		</g>
		<g>
			<path class="st1" d="M214.066,350.286c-0.085,3.06-12.782,4.72-28.36,3.707c-15.578-1.013-28.138-4.315-28.053-7.375
				c0.085-3.06,12.782-4.72,28.36-3.707C201.591,343.924,214.151,347.226,214.066,350.286z"/>
			<path class="st1" d="M157.652,346.617l-0.279,3.131c-0.177,1.692,0.917,3.336,2.677,4.015c4.481,1.729,16.104,4.141,26.693,4.901
				c12.946,0.929,21.266-0.831,25.357-2.104c1.989-0.619,3.071-2.523,2.513-4.416l-0.547-1.858"/>
		</g>
		<path class="st0" d="M168.479,378.289c0,0,2.925-7.706,29.787-0.471c26.862,7.235,25.069-12.915,32.018-11.328
			c6.949,1.588-8.083,21.02-20.863,18.507c0,0,10.552,9.456,5.021,12.421c-6.358,3.408-4.202-8.363-12.148-6.417
			c-0.198,0.048-0.4,0.056-0.603,0.07C196.272,391.465,178.639,384.704,168.479,378.289z"/>
		<path class="st1" d="M209.421,384.997c0,0-3.88-3.748-12.98-2.413"/>
	</g>
</g>
<g>
	<path class="st0" d="M560.548,433.532c0,0-10.352,11.038,2.935,26.386c14.833,17.135,35.395,6.563,38.545,3.923
		c0,0,8.174,5.549,15.544,4.989c0,0-10.805-4.452-12.648-10.831c0,0,2.184-21.459-16.159-30.515
		C570.422,418.428,560.548,433.532,560.548,433.532z"/>
	<g>
		<path class="st1" d="M558.829,435.881c0,0-16.064,0.409-20.483-23.334c-4.419-23.743-7.303-28.601-15.091-39.661
			c-7.788-11.06-4.771-30.74,7.658-28.202c12.429,2.537,11.537,17.718,8.832,26.734c-2.705,9.016,12.092-2.574,9.604,13.795
			c-2.489,16.369-9.997,37.073,12.621,46.541"/>
		<path class="st1" d="M557.372,439.186c0,0-19.329-0.369-22.986-19.9c-3.657-19.531-8.388-30.894-21.709-47.578
			c-13.321-16.684-10.045-40.848,3.344-41.494c13.39-0.645,14.892,14.469,14.892,14.469"/>
		<path class="st1" d="M534.386,419.286c0,0-3.881-13.163-16.362-14.495c-12.481-1.332-9.823-12.549-2.038-11.877
			c0,0-6.697-5.263,0.402-8.027c0,0-8.19-3.139-2.422-11.547"/>
		<path class="st1" d="M568.805,436.492c2.777-3.157,6.737-4.988,10.654-6.518"/>
		<path class="st1" d="M565.632,448.41c3.769-8.158,11.213-14.532,19.855-17"/>
		<path class="st1" d="M577.004,444.528c0.978-1.924,2.503-3.528,4.204-4.855c1.701-1.328,4.807-2.935,6.658-3.518"/>
		<path class="st1" d="M570.784,429.104c1.341-0.665,2.108-0.897,3.593-1.083"/>
		<path class="st1" d="M587.295,443.642c0.486-1,1.467-1.656,2.445-2.186c1.871-1.015,3.896-1.745,5.983-2.158"/>
		<path class="st1" d="M593.419,445.014c1.324-0.847,2.86-1.36,4.427-1.478"/>
		<path class="st1" d="M596.024,449.239c1.255-0.901,2.646-1.612,4.112-2.099"/>
	</g>
</g>
<g>
	<path class="st0" d="M98.229,41.101c0,0,0.488-15.125-19.625-17.88c-22.453-3.076-30.917,18.439-31.54,22.502
		c0,0-9.803,1.229-14.968,6.515c0,0,11.054-3.789,16.65-0.215c0,0,12.527,17.559,32.283,12.251
		C100.786,58.965,98.229,41.101,98.229,41.101z"/>
	<g>
		<path class="st1" d="M97.97,38.202c0,0,11.795-10.913,30.79,4.003c18.994,14.915,24.368,16.66,37.519,19.825
			s23.878,19.937,12.868,26.238c-11.01,6.3-20.363-5.69-24.284-14.248c-3.921-8.557-7.383,9.917-16.32-4.02
			c-8.938-13.937-16.968-34.445-40.206-26.623"/>
		<path class="st1" d="M96.882,34.758c0,0,14.761-12.484,30.402-0.229s26.697,17.666,47.717,21.402
			c21.02,3.736,34.514,24.048,24.883,33.373c-9.631,9.325-20.738-1.035-20.738-1.035"/>
		<path class="st1" d="M127.284,34.528c0,0,11.606,7.324,21.859,0.084c10.253-7.24,15.663,2.94,9.372,7.575
			c0,0,8.505-0.469,4.997,6.294c0,0,8.224-3.05,9.442,7.073"/>
		<path class="st1" d="M90.074,44.329c-0.001,4.204-1.767,8.194-3.698,11.929"/>
		<path class="st1" d="M84.589,33.283c2.555,8.616,1.172,18.318-3.688,25.877"/>
		<path class="st1" d="M78.61,43.707c0.535,2.091,0.449,4.302,0.048,6.423c-0.401,2.121-1.673,5.378-2.678,7.038"/>
		<path class="st1" d="M93.465,51.184c-0.568,1.385-0.992,2.065-1.984,3.186"/>
		<path class="st1" d="M71.466,51.167c0.295,1.072-0.009,2.213-0.393,3.256c-0.735,1.997-1.774,3.883-3.069,5.571"/>
		<path class="st1" d="M65.961,54.179c-0.435,1.51-1.25,2.909-2.349,4.033"/>
		<path class="st1" d="M61.215,52.726c-0.347,1.505-0.924,2.957-1.703,4.291"/>
	</g>
</g>
<g>
	<path class="st0" d="M624.246,308.002c1.581,2.422,1.657,5.129-0.799,6.683c-0.983,0.622-2.182,0.853-3.347,1.072
		c-1.506,0.282-3.035,0.566-4.572,0.447c-1.672-0.13-3.27-0.73-4.809-1.386c-3.651-1.557-7.138-3.473-10.385-5.704
		c-1.672-1.148-2.089-1.682-4.05-1.544c-1.638,0.115-3.274-0.169-4.851-0.612c-5.084-1.428-9.633-4.526-12.796-8.571
		c-0.778-0.995-1.456-2.046-2.066-3.138c-0.749-1.341-0.671-1.464-2.187-1.694c-2.647-0.402-4.956-0.641-7.402-1.871
		c-3.574-1.797-6.492-4.593-9.045-7.572c-0.669-0.781-1.343-1.634-1.462-2.625c-0.086-0.713,0.13-1.424,0.432-2.075
		c1.647-3.539,5.759-5.671,9.752-4.654c0,0-8.241,8.201,21.283,24.153C617.465,314.862,624.246,308.002,624.246,308.002z"/>
	<path class="st2" d="M570.388,270.357c0,0-9.275,8.411-2.433,14.467c8.806,7.794,42.101,31.098,56.002,23.166
		c0,0,14.353-23.349-14.829-39.641C609.128,268.349,585.238,256.112,570.388,270.357z"/>
	<path class="st2" d="M557.48,283.998c-0.7,0.359-1.05,0.616-1.034,1.376c0.033,1.543,2.944,1.427,3.596,2.853
		c0.41,0.896-0.303,1.835-0.69,2.726c-0.63,1.45-0.143,3.472,1.421,4.05c1.695,0.626,3.415-0.682,4.618-1.937
		c2.17,0.492,3.526,2.53,4.486,4.444c0.961,1.915,0.595,5.713,2.533,6.778c0.332,0.182,0.701,0.331,1.081,0.315
		c1.153-0.048,3.262-3.224,4.375-2.913c0.577,0.161,0.884,0.745,1.327,1.135c1.023,0.902,2.66,1.039,3.146-0.179"/>
	<path class="st2" d="M591.761,307.55c-0.159,0.585-0.161,0.593-0.319,1.177c-0.258,0.952-0.518,1.951-0.277,2.917
		c0.24,0.966,1.156,1.871,2.193,1.783c0.87-0.074,1.626-0.803,2.487-0.64c0.412,0.078,0.755,0.351,1.04,0.646
		c0.792,0.817,1.294,1.88,1.407,2.974c0.096,0.933-0.083,1.872,0.004,2.806c0.088,0.934,0.537,1.941,1.451,2.315
		c1.344,0.55,2.753-0.529,3.638-1.604c0.885-1.075,1.887-2.357,3.341-2.348c1.839,0.011,2.856,2.008,3.482,3.657
		c0.128,0.337,0.272,0.693,0.571,0.915c0.857,0.64,2.007-0.276,2.566-1.142c0.559-0.866,1.45-1.917,2.459-1.529
		c0.84,0.323,1.071,1.486,1.929,1.762c0.867,0.28,1.661-0.54,2.032-1.321c0.643-1.351,0.894-2.652,0.648-4.131"/>
	<path class="st2" d="M557.123,286.406c0,0-8.765,4.592,1.878,15.915c10.643,11.323,43.384,26.654,52.753,22.943
		c0,0,4.73-1.958,5.082-4.793"/>
	<path class="st2" d="M553.47,292.022c-1.605,0.33-2.771-0.064-4.253,0.593c-1.482,0.657-2.59,2.469-1.673,3.783
		c0.426,0.611,1.165,0.943,1.842,1.295c1.392,0.723,2.698,1.678,3.53,2.959c1.143,1.762,1.285,3.962,2.399,5.74
		c0.933,1.489,2.544,2.589,4.322,2.954c1.213,0.249,2.532,0.185,3.606,0.784c0.707,0.395,1.22,1.034,1.714,1.656
		c1.516,1.91,3.032,3.821,4.547,5.731c1.058,1.334,2.572,2.832,4.248,2.406c0.405-0.103,0.778-0.318,1.197-0.356
		c1.081-0.1,1.864,0.934,2.504,1.779c1.551,2.046,3.701,3.686,6.137,4.682c1.245,0.509,3.063,0.65,3.563-0.525
		c0.176-0.415,0.25-1.024,0.724-1.052c0.202-0.012,0.41,0.08,0.552,0.219c2.82,2.757,4.141,7.155,8.833,7.904
		c1.665,0.266,4.563-1.451,5.031-1.829c0.421-0.34,1.059-0.257,1.603-0.124c2.37,0.578,4.822,1.737,7.125,1.03
		c1.439-0.442,2.579-1.637,2.899-3.039c0.32-1.403-0.049-2.828-1.157-3.836"/>
	<path class="st2" d="M552.457,300.038c0,0-7.147,8.399,6.286,21.37c8.379,8.091,19.866,14.654,32.599,15.783
		c4.46,0.395,9.699,0.503,13.253-1.999c1.347-0.948,2.557-2.109,3.268-3.494"/>
	<path class="st3" d="M601.018,286.011c-0.187,1.069-1.257,1.774-2.39,1.576c-1.133-0.198-1.899-1.225-1.712-2.294
		s1.257-1.774,2.39-1.576C600.438,283.915,601.205,284.942,601.018,286.011z"/>
	<path class="st3" d="M614.846,286.354c-0.187,1.069-1.257,1.774-2.39,1.576c-1.133-0.198-1.899-1.225-1.712-2.294
		s1.257-1.774,2.39-1.576C614.267,284.258,615.033,285.285,614.846,286.354z"/>
	<path class="st3" d="M596.845,274.516c-0.187,1.069-1.257,1.774-2.39,1.576c-1.133-0.199-1.899-1.226-1.712-2.294
		c0.187-1.068,1.257-1.774,2.39-1.576C596.266,272.42,597.032,273.448,596.845,274.516z"/>
</g>
<g>
	<path class="st0" d="M286.594,95.832c2.883,0.229,5.072,1.824,4.8,4.718c-0.109,1.158-0.658,2.248-1.198,3.304
		c-0.697,1.364-1.407,2.748-2.442,3.892c-1.125,1.244-2.576,2.142-4.036,2.959c-3.464,1.938-7.111,3.526-10.862,4.732
		c-1.931,0.621-2.608,0.625-3.698,2.261c-0.91,1.367-2.135,2.488-3.45,3.465c-4.238,3.15-9.47,4.857-14.605,4.887
		c-1.263,0.007-2.509-0.099-3.746-0.284c-1.52-0.227-1.568-0.364-2.678,0.696c-1.936,1.849-3.537,3.531-6.006,4.715
		c-3.607,1.73-7.603,2.33-11.522,2.529c-1.027,0.052-2.114,0.064-2.971-0.448c-0.616-0.368-1.048-0.973-1.378-1.61
		c-1.794-3.467-0.967-8.024,2.279-10.562c0,0,1.453,11.536,32.125-2.079C287.878,105.392,286.594,95.832,286.594,95.832z"/>
	<path class="st2" d="M223.879,115.443c0,0,0.986,12.482,9.962,10.769c11.551-2.204,50.348-14.308,52.567-30.158
		c0,0-9.705-25.632-40.437-12.497C245.972,83.556,221.684,94.982,223.879,115.443z"/>
	<path class="st2" d="M226.784,133.997c-0.143,0.773-0.154,1.207,0.457,1.659c1.241,0.917,2.929-1.457,4.456-1.101
		c0.96,0.224,1.267,1.362,1.735,2.213c0.762,1.385,2.66,2.236,4.074,1.352c1.532-0.959,1.548-3.12,1.29-4.839
		c1.716-1.416,4.157-1.244,6.26-0.833c2.102,0.41,4.885,3.022,6.912,2.139c0.347-0.151,0.691-0.353,0.91-0.663
		c0.667-0.942-0.558-4.552,0.37-5.243c0.481-0.358,1.13-0.244,1.71-0.356c1.34-0.258,2.449-1.47,1.782-2.599"/>
	<path class="st2" d="M266.379,121.264c0.366,0.483,0.371,0.49,0.737,0.972c0.596,0.787,1.227,1.602,2.139,2.002
		c0.911,0.4,2.187,0.229,2.752-0.646c0.473-0.734,0.358-1.777,1.014-2.36c0.313-0.278,0.739-0.382,1.147-0.428
		c1.131-0.127,2.279,0.125,3.214,0.705c0.797,0.495,1.43,1.21,2.223,1.711c0.793,0.501,1.864,0.761,2.719,0.267
		c1.257-0.728,1.264-2.502,0.954-3.86c-0.309-1.358-0.712-2.935,0.184-4.08c1.134-1.449,3.335-1.033,5.023-0.52
		c0.345,0.105,0.714,0.208,1.073,0.108c1.031-0.287,1.008-1.757,0.665-2.729s-0.631-2.319,0.293-2.881
		c0.769-0.467,1.831,0.06,2.574-0.449c0.752-0.515,0.588-1.645,0.197-2.416c-0.676-1.335-1.552-2.329-2.873-3.038"/>
	<path class="st2" d="M228.472,135.751c0,0-1.724,9.743,13.743,8.243c15.467-1.501,47.614-18.04,50.405-27.723
		c0,0,1.342-4.94-0.686-6.952"/>
	<path class="st2" d="M230.683,142.075c-0.72,1.472-1.745,2.154-2.131,3.729c-0.386,1.575,0.37,3.559,1.972,3.637
		c0.744,0.036,1.459-0.345,2.151-0.666c1.423-0.66,2.977-1.11,4.5-0.984c2.093,0.172,3.92,1.405,6.009,1.61
		c1.749,0.172,3.604-0.43,4.98-1.615c0.938-0.808,1.694-1.891,2.825-2.374c0.745-0.318,1.564-0.334,2.358-0.344
		c2.439-0.032,4.877-0.064,7.316-0.095c1.702-0.022,3.813-0.304,4.501-1.891c0.166-0.384,0.224-0.81,0.45-1.165
		c0.582-0.917,1.878-0.904,2.939-0.894c2.567,0.024,5.18-0.675,7.457-1.995c1.164-0.674,2.387-2.027,1.762-3.14
		c-0.221-0.393-0.658-0.823-0.391-1.216c0.114-0.167,0.314-0.275,0.511-0.303c3.906-0.547,8.194,1.097,11.655-2.159
		c1.228-1.155,1.642-4.498,1.628-5.1c-0.012-0.541,0.445-0.995,0.882-1.344c1.906-1.522,4.322-2.754,5.171-5.01
		c0.53-1.409,0.281-3.041-0.633-4.152c-0.915-1.111-2.268-1.69-3.743-1.429"/>
	<path class="st2" d="M236.408,147.777c0,0,2.278,10.79,20.755,8.089c11.525-1.685,23.741-6.764,32.419-16.15
		c3.039-3.288,6.327-7.368,6.52-11.711c0.073-1.645-0.106-3.313-0.767-4.722"/>
	<path class="st3" d="M254.992,100.772c0.731,0.801,0.635,2.079-0.214,2.854c-0.849,0.775-2.131,0.754-2.862-0.048
		s-0.635-2.079,0.214-2.854C252.979,99.949,254.26,99.97,254.992,100.772z"/>
	<path class="st3" d="M263.717,90.038c0.731,0.801,0.635,2.079-0.214,2.854c-0.849,0.775-2.131,0.754-2.862-0.048
		s-0.635-2.079,0.214-2.854C261.704,89.215,262.985,89.236,263.717,90.038z"/>
	<path class="st3" d="M243.344,97.047c0.731,0.802,0.635,2.079-0.214,2.854c-0.849,0.775-2.131,0.754-2.862-0.048
		c-0.731-0.801-0.635-2.079,0.214-2.854S242.613,96.246,243.344,97.047z"/>
</g>
<g>
	<path class="st0" d="M489.771,94.258c0,0-6.362-3.085-1.982-10.234c0,0-8.322-5.75-1.308-16.837c0,0-6.897-5.682,1.682-12.112
		c0,0,1.731-3.388-3.321-5.43c0,0,5.498-7.822,12.673-2.355c7.174,5.467,4.578,10.549,4.578,10.549s4.382-3.354,9.186,0.26
		c4.804,3.614,3.69,6.078,3.69,6.078s6.801-3.768,10.325,5.756C525.294,69.933,516.78,90.261,489.771,94.258z"/>
	<g>
		<path class="st2" d="M510.533,110.829l10.016,12.826c1.033,1.323,2.682,2.017,4.345,1.789c4.14-0.568,11.825-2.964,16.123-12.709
			c0.644-1.459,0.474-3.16-0.403-4.492l-8.915-13.524c0,0,5.807-10.163-6.406-24.786c0,0-9.157,21.072-37.029,24.534
			C488.265,94.466,495.936,109.638,510.533,110.829z"/>
		<path class="st2" d="M510.533,110.829c0,0,4.839-2.676,9.057-5.537"/>
	</g>
	<path class="st2" d="M487.789,84.024c0,0,5.031,1.266,11.289-3.03"/>
	<line class="st2" x1="502.093" y1="57.839" x2="497.452" y2="61.495"/>
</g>
<g>
	<path class="st0" d="M98.138,261.164c0,0,2.123-6.744,9.835-3.454c0,0,4.474-9.072,16.466-3.751c0,0,4.615-7.652,12.228-0.103
		c0,0,3.605,1.218,4.887-4.078c0,0,8.54,4.298,4.179,12.193c-4.361,7.895-9.768,6.068-9.768,6.068s3.957,3.846,1.083,9.125
		c-2.874,5.279-5.475,4.538-5.475,4.538s4.72,6.178-4.187,11.054C127.386,292.757,106.033,287.301,98.138,261.164z"/>
	<g>
		<path class="st2" d="M84.774,284.122l-11.227,11.78c-1.158,1.215-1.604,2.947-1.135,4.559c1.165,4.013,4.658,11.266,14.926,14.096
			c1.538,0.424,3.196,0.008,4.385-1.055l12.078-10.793c0,0,10.901,4.262,23.586-9.954c0,0-22.183-5.985-29.674-33.052
			C97.712,259.704,83.822,269.507,84.774,284.122z"/>
		<path class="st2" d="M84.774,284.122c0,0,3.354,4.396,6.799,8.152"/>
	</g>
	<path class="st2" d="M107.973,257.71c0,0-0.519,5.162,4.645,10.726"/>
	<line class="st2" x1="135.965" y1="268.039" x2="131.671" y2="263.982"/>
</g>
<g>
	<path class="st0" d="M164.776,139.09c0,0,3.495,7.494-4.628,7.799c-8.123,0.305-8.158,6.348-13.202,3.427
		c-6.226-3.606-10.351-4.345-12.577-1.697c-3.209,3.817-2.608,4.43-4.268,5.016c-2.175,0.768-3.739-0.33-7.585-3.792
		c-4.078-3.671-9.804-5.772-16.981-0.845c-7.178,4.927-9.119-2.441-17.512-1.182c-5.27,0.791-8.043,1.235-8.043,1.235l0.705-2.494
		c0,0,19.716-3.069,36.419-3.16c7.993-0.044,20.512-0.729,29.916,0.083C159.306,144.541,164.225,144.539,164.776,139.09z"/>
	<g>
		<path class="st2" d="M110.633,92.707c0,0-15.811,7.51-21.837,21.062c-5.422,12.193-8.883,22.235-8.193,31.875
			c0.242,3.38-2.08,6.525-5.432,7.019c-1.48,0.218-3.214,0.002-5.165-1.034c-2.055-1.091-3.374-3.217-3.547-5.538
			c-0.424-5.676,0.121-18.328,9.569-35.744c0,0,4.382-9.546,24.047-23.777C100.075,86.571,107.984,83.444,110.633,92.707z"/>
		<path class="st2" d="M77.887,145.971c0,0-4.465-4.618-9.181-0.635"/>
		<path class="st2" d="M86.496,108.217c0,0-6.006,7.357-8.482,18.687"/>
		<path class="st2" d="M110.633,92.707c0,0,29.877,18.195,52.696,44.051c1.16,1.314,1.42,3.196,0.655,4.773l0,0
			c-0.757,1.561-2.368,2.52-4.101,2.439c-12.181-0.573-60.131-2.444-79.199,2.588"/>
	</g>
	<path class="st0" d="M99.268,122.261c4.914,0.757,9.222-0.733,9.622-3.329c0.4-2.596-3.259-5.314-8.173-6.072
		c-4.914-0.757-9.222,0.733-9.622,3.329C90.695,118.786,94.354,121.504,99.268,122.261z"/>
	<path class="st0" d="M117.531,113.815c3.81,2.2,7.917,2.219,9.173,0.044c1.256-2.176-0.814-5.723-4.624-7.923
		c-3.81-2.2-7.917-2.219-9.173-0.044C111.65,108.068,113.72,111.615,117.531,113.815z"/>
	<path class="st0" d="M135.186,133.433c3.753,2.167,7.934,1.95,9.339-0.483c1.405-2.433-0.498-6.163-4.251-8.329
		c-3.753-2.167-7.934-1.95-9.339,0.483C129.53,127.537,131.433,131.266,135.186,133.433z"/>
	<path class="st0" d="M110.633,136.105c4.7,0,8.51-1.871,8.51-4.179c0-2.308-3.81-4.179-8.51-4.179c-4.7,0-8.511,1.871-8.511,4.179
		C102.123,134.234,105.933,136.105,110.633,136.105z"/>
</g>
<g>
	<path class="st0" d="M626.732,240.083c0,0-8.097-1.677-3.486-8.372c4.611-6.695-0.213-10.335,5.144-12.632
		c6.613-2.836,9.671-5.701,8.878-9.069c-1.142-4.854-1.992-4.739-1.47-6.419c0.684-2.203,2.5-2.801,7.574-3.815
		c5.381-1.076,10.487-4.41,10.827-13.109c0.34-8.699,7.408-5.851,11.415-13.333c2.516-4.697,3.817-7.187,3.817-7.187l1.578,2.056
		c0,0-9.324,17.641-19.235,31.086c-4.743,6.434-11.676,16.88-17.948,23.934C625.631,232.439,622.693,236.385,626.732,240.083z"/>
	<g>
		<path class="st2" d="M696.279,224.4c0,0,3.43-17.165-3.833-30.096c-6.535-11.635-12.517-20.411-20.657-25.62
			c-2.854-1.826-3.988-5.568-2.381-8.551c0.71-1.317,1.919-2.577,3.916-3.523c2.103-0.996,4.596-0.782,6.56,0.466
			c4.804,3.053,14.622,11.052,22.937,29.036c0,0,5.033,9.219,4.689,33.491C707.51,219.603,705.29,227.813,696.279,224.4z"/>
		<path class="st2" d="M673.15,166.311c0,0,6.371-0.82,5.997-6.981"/>
		<path class="st2" d="M698.272,195.778c0,0-2.308-9.213-9.912-17.969"/>
		<path class="st2" d="M696.279,224.4c0,0-32.445,13.077-66.814,15.917c-1.747,0.144-3.411-0.772-4.218-2.328l0,0
			c-0.799-1.54-0.605-3.405,0.496-4.746c7.74-9.423,37.9-46.747,45.264-65.042"/>
	</g>
	
		<ellipse transform="matrix(0.7128 -0.7013 0.7013 0.7128 55.07 536.5253)" class="st0" cx="682.714" cy="201.014" rx="9.002" ry="4.756"/>
	<path class="st0" d="M675.235,217.314c-4.041,1.74-6.511,5.021-5.518,7.328c0.994,2.307,5.075,2.768,9.116,1.028
		c4.041-1.74,6.511-5.021,5.518-7.328C683.357,216.034,679.276,215.574,675.235,217.314z"/>
	<path class="st0" d="M648.954,219.742c-3.98,1.714-6.306,5.195-5.195,7.776s5.239,3.284,9.219,1.57
		c3.98-1.714,6.306-5.195,5.195-7.776S652.934,218.029,648.954,219.742z"/>
	<path class="st0" d="M661.487,198.461c-2.809,3.768-3.587,7.941-1.737,9.321c1.85,1.38,5.628-0.557,8.437-4.325
		c2.809-3.768,3.587-7.941,1.737-9.321C668.073,192.756,664.296,194.692,661.487,198.461z"/>
</g>
<g>
	<path class="st0" d="M609.798,388.693l-9.478,5.218c0,0-4.83-3.22-7.38,0c-2.549,3.22,1.744,6.709,4.159,6.306
		c0,0-1.878,6.038,2.683,7.379c4.562,1.342,6.038-4.696,4.696-7.916l8.735-4.985C613.214,394.695,610.286,393.94,609.798,388.693z"
		/>
	<path class="st2" d="M610.798,391.933c0,0,2.567,5.945,10.538,3.513c7.971-2.432,16.482-1.995,21.716-3.826
		c9.947-3.48,19.639-15.212,11.868-25.08c-8.461-10.743-23.501-8.822-33.243,4.672c-7.96,11.025-9.393,11.128-10.88,13.425
		C609.312,386.934,609.587,390.204,610.798,391.933z"/>
	<path class="st3" d="M636.247,388.693c-1.047,0-1.895-0.849-1.895-1.895c0-1.047,0.849-1.895,1.895-1.895
		c1.047,0,1.895,0.848,1.895,1.895C638.142,387.844,637.294,388.693,636.247,388.693z"/>
	<path class="st3" d="M645.974,375.892c-1.047,0-1.895-0.848-1.895-1.895c0-1.047,0.849-1.895,1.895-1.895
		c1.047,0,1.895,0.849,1.895,1.895C647.87,375.044,647.021,375.892,645.974,375.892z"/>
	<circle class="st3" cx="646.272" cy="383.399" r="1.245"/>
	<circle class="st3" cx="627.683" cy="388.693" r="0.948"/>
</g>
<g>
	<path class="st0" d="M98.318,379.36l8.607,6.555c0,0-0.99,5.72,2.987,6.748c3.976,1.028,5.429-4.31,4.083-6.356
		c0,0,6.281-0.726,5.662-5.44c-0.619-4.715-6.738-3.621-9.139-1.091l-8.094-5.97C102.424,373.807,102.919,376.79,98.318,379.36z"/>
	<path class="st2" d="M100.876,377.134c0,0,4.397-4.753-1.053-11.058c-5.45-6.305-8.494-14.264-12.287-18.31
		c-7.208-7.688-21.859-11.802-27.737-0.702c-6.399,12.085,1.444,25.061,17.726,28.508c13.303,2.817,13.978,4.086,16.68,4.515
		C96.907,380.516,99.785,378.942,100.876,377.134z"/>
	<path class="st3" d="M87.613,355.174c0.424,0.957-0.009,2.077-0.966,2.5c-0.957,0.424-2.077-0.009-2.5-0.966
		c-0.424-0.957,0.009-2.077,0.966-2.5C86.07,353.784,87.19,354.217,87.613,355.174z"/>
	<path class="st3" d="M71.971,351.459c0.424,0.957-0.009,2.077-0.966,2.5c-0.957,0.424-2.077-0.009-2.5-0.966
		c-0.424-0.957,0.009-2.077,0.966-2.5C70.428,350.07,71.548,350.502,71.971,351.459z"/>
	<path class="st3" d="M79.854,347.646c0.278,0.629-0.006,1.364-0.635,1.642c-0.629,0.278-1.364-0.006-1.642-0.635
		c-0.278-0.629,0.006-1.364,0.635-1.642C78.84,346.733,79.576,347.017,79.854,347.646z"/>
	<path class="st3" d="M91.946,362.622c0.212,0.479-0.004,1.038-0.483,1.25c-0.479,0.212-1.038-0.004-1.25-0.483
		c-0.212-0.479,0.005-1.038,0.483-1.25C91.175,361.927,91.734,362.143,91.946,362.622z"/>
</g>
<g>
	<path class="st0" d="M384.228,77.659l9.264-5.588c0,0,4.953,3.027,7.374-0.291c2.42-3.318-2.008-6.635-4.405-6.137
		c0,0,1.639-6.107-2.972-7.268s-5.848,4.931-4.38,8.095l-8.532,5.326C380.577,71.796,383.533,72.434,384.228,77.659z"/>
	<path class="st2" d="M383.1,74.46c0,0-2.799-5.839-10.669-3.094c-7.869,2.744-16.39,2.643-21.549,4.679
		c-9.802,3.869-19.024,15.975-10.87,25.528c8.878,10.401,23.831,7.888,33.033-5.979c7.519-11.33,8.947-11.49,10.342-13.844
		C384.783,79.396,384.379,76.141,383.1,74.46z"/>
	<path class="st3" d="M357.799,78.702c1.046-0.041,1.927,0.773,1.969,1.819c0.041,1.046-0.773,1.927-1.819,1.969
		c-1.046,0.041-1.927-0.773-1.969-1.819C355.938,79.624,356.753,78.743,357.799,78.702z"/>
	<path class="st3" d="M348.584,91.876c1.046-0.041,1.927,0.773,1.969,1.819c0.041,1.046-0.773,1.927-1.819,1.969
		c-1.046,0.041-1.927-0.773-1.969-1.819C346.723,92.798,347.538,91.917,348.584,91.876z"/>
	<path class="st3" d="M347.942,83.143c0.687-0.027,1.266,0.508,1.293,1.195c0.027,0.687-0.508,1.266-1.195,1.293
		c-0.687,0.027-1.266-0.508-1.293-1.195C346.72,83.749,347.255,83.17,347.942,83.143z"/>
	<path class="st3" d="M366.319,77.417c0.523-0.021,0.964,0.387,0.984,0.91c0.021,0.523-0.387,0.964-0.91,0.984
		c-0.523,0.021-0.964-0.387-0.984-0.91C365.389,77.879,365.796,77.438,366.319,77.417z"/>
</g>
<g>
	<path class="st0" d="M473.406,437.851l7.096-8.167c0,0,5.645,1.356,6.926-2.546c1.282-3.902-3.952-5.695-6.079-4.484
		c0,0-0.32-6.315-5.064-6.001c-4.745,0.314-4.047,6.491-1.677,9.05l-6.479,7.692C468.128,433.396,471.138,433.094,473.406,437.851z"
		/>
	<path class="st2" d="M471.349,435.155c0,0-4.46-4.694-11.103,0.338c-6.643,5.033-14.782,7.558-19.063,11.083
		c-8.136,6.698-13.186,21.054-2.488,27.634c11.647,7.164,25.102,0.173,29.591-15.853c3.668-13.094,4.978-13.686,5.58-16.354
		C474.469,439.334,473.083,436.36,471.349,435.155z"/>
	<path class="st3" d="M448.58,446.976c0.983-0.361,2.072,0.143,2.433,1.125c0.361,0.982-0.143,2.072-1.125,2.433
		c-0.982,0.361-2.072-0.143-2.433-1.125C447.094,448.426,447.598,447.337,448.58,446.976z"/>
	<path class="st3" d="M443.866,462.346c0.983-0.361,2.072,0.143,2.433,1.125c0.361,0.983-0.143,2.072-1.125,2.433
		c-0.983,0.361-2.072-0.143-2.433-1.125C442.38,463.796,442.884,462.707,443.866,462.346z"/>
	<path class="st3" d="M440.568,454.234c0.645-0.237,1.361,0.094,1.598,0.739c0.237,0.645-0.094,1.361-0.739,1.598
		c-0.645,0.237-1.361-0.094-1.598-0.739C439.592,455.187,439.923,454.471,440.568,454.234z"/>
	<path class="st3" d="M456.292,443.132c0.491-0.181,1.036,0.071,1.216,0.563c0.181,0.491-0.071,1.036-0.562,1.216
		c-0.491,0.181-1.036-0.071-1.217-0.563C455.549,443.857,455.801,443.312,456.292,443.132z"/>
</g>
<g>
	<g>
		<g>
			<path class="st4" d="M661.766,38.133c0,0-3.574,14.667-12.077,31.618l4.134,3.764c0,0,10.358-17.92,12.664-29.122L661.766,38.133
				z"/>
			<path class="st4" d="M661.766,38.133l-6.076,1.069c0,0-2.692,13.623-10.414,29.703l4.413,0.846"/>
			<polyline class="st4" points="645.276,68.904 649.121,73.054 653.823,73.515 			"/>
		</g>
		<g>
			<path class="st4" d="M713.973,94.53c0,0-14.908,2.374-33.828,1.086l-1.873,5.268c0,0,20.531,2.625,31.753,0.42L713.973,94.53z"/>
			<path class="st4" d="M713.973,94.53l-3.335-5.191c0,0-13.604,2.784-31.419,1.879l0.926,4.397"/>
			<polyline class="st4" points="679.219,91.219 676.879,96.369 678.272,100.884 			"/>
		</g>
		<g>
			<path class="st4" d="M701.528,34.671c0,0-2.454,4.211-17.246,16.08l2.191,5.144c0,0,9.531-7.891,15.654-14.482L701.528,34.671z"
				/>
			<path class="st4" d="M701.528,34.671l-5.969-1.56c0,0-1.218,3.63-14.936,15.031l3.659,2.608"/>
			<polyline class="st4" points="680.623,48.143 682.391,53.517 686.473,55.895 			"/>
		</g>
		<g>
			<path class="st4" d="M714.563,146.288c0,0-2.799-3.991-7.394-22.39l-5.589-0.162c0,0,3.182,11.957,6.608,20.276L714.563,146.288z
				"/>
			<path class="st4" d="M714.563,146.288l3.913-4.77c0,0-2.788-2.624-7.407-19.853l-3.899,2.233"/>
			<polyline class="st4" points="711.069,121.665 705.448,121.023 701.581,123.736 			"/>
		</g>
	</g>
	<g>
		<g>
			<g>
				<path class="st4" d="M623.051,78.962c0,0-9.006,27.921-33.497,62.418l-7.984-8.068l23.951-57.136L623.051,78.962z"/>
				<path class="st4" d="M623.051,78.962l8.34,8.611c0,0-5.404,14.352,3.856,21.193c9.26,6.842,15.11-3.255,15.11-3.255l2.705,3.979
					l-37.523,41.323l-25.985-9.433"/>
			</g>
			<polygon class="st4" points="627.544,83.601 636.672,66.939 641.756,69.706 631.391,87.573 			"/>
			<polygon class="st4" points="622.231,56.367 615.68,77.791 608.124,76.59 613.766,59.401 			"/>
			<polyline class="st4" points="622.231,56.367 625.777,59.358 619.248,78.358 			"/>
			<path class="st4" d="M625.777,59.358l3.112-12.274l7.987-0.225c0,0-0.884,11.507-5.638,22.396"/>
			<path class="st4" d="M636.877,46.859l3.481,3.632c0,0,0.052,8.244-3.686,16.447l-5.433,2.317l-6.329,11.626"/>
			<path class="st4" d="M637.457,77.117c0.085-0.147,4.973,1.578,4.973,1.578l-12.16,22.209"/>
			<polyline class="st4" points="642.43,78.695 642.838,86.003 632.238,105.611 			"/>
			<path class="st4" d="M636.482,109.592l17.027-24.805c0,0-4.689-2.208-4.789-2.07l-16.108,22.451"/>
			<polyline class="st4" points="653.509,84.787 653.182,92.099 640.665,110.543 			"/>
			<polyline class="st4" points="650.358,105.511 655.827,99.027 651.499,95.377 			"/>
		</g>
		
			<ellipse transform="matrix(0.5508 -0.8346 0.8346 0.5508 173.4831 573.1905)" class="st0" cx="619.248" cy="125.425" rx="16.921" ry="8.501"/>
	</g>
</g>
<g>
	<g>
		<path class="st2" d="M87.252,455.759c0,0,2.33-8.474-4.873-10.593c-7.203-2.119-14.406-2.33-26.906-15.254
			c-12.5-12.923-10.381-23.093-22.245-19.703c-11.864,3.39-13.347,24.364,8.686,43.643c22.033,19.279,57.414,20.762,59.532-0.847
			C101.446,453.005,95.303,459.149,87.252,455.759z"/>
		<path class="st2" d="M101.446,453.005c0,0,8.237-6.056,5.972-13.228c-2.531-8.014-7.744-8.776-15.359-7.744
			c-7.615,1.033-22.079-2.581-28.98-11.229c-6.9-8.647-6.513-19.747-14.773-21.167c-8.26-1.42-13.32,2.966-15.079,10.572"/>
		<path class="st2" d="M56.499,408.186c0,0,3.682-3.306,5.747,1.365c2.065,4.671,5.421,10.662,12.777,13.76
			c7.357,3.098,19.256,0.846,20.147,8.398"/>
	</g>
	<path class="st5" d="M48.496,410.357c1.19-2.459,4.466-3.414,7.402-3.663c0.873-0.074,1.807-0.098,2.562,0.307
		c1.121,0.603,1.465,1.957,1.347,3.138c-0.272,2.715-2.329,4.985-4.472,6.887c-3.625,3.215-4.169,2.928-7.331,6.527
		c-1.432,1.631-2.675,3.503-2.912,5.581c-0.237,2.078,0.756,4.38,2.817,5.293c0.78,0.346,1.715,0.472,2.517,0.174
		c0.639-0.237,1.129-0.711,1.599-1.171c3.462-3.39,3.306-3.754,6.768-7.144c2.715-2.659,5.792-5.489,9.756-5.855
		c1.744-0.161,3.801,0.392,4.427,1.884c0.528,1.259-0.16,2.656-0.938,3.802c-2.482,3.658-5.982,6.629-9.047,9.899
		c-1.554,1.658-3.059,3.526-3.287,5.697c-0.354,3.362,2.798,6.541,6.458,7.063c3.66,0.522,7.432-1.286,9.578-4.04
		c2.056-2.638,2.752-5.927,3.932-8.98c0.728-1.883,1.707-4.22,3.851-4.629c4.977-0.949,5.764,3.476,6.166,6.241"/>
</g>
<g>
	<g>
		<path class="st2" d="M704.172,407.335c0,0-8.474-2.331-10.593,4.873c-2.119,7.203-2.33,14.406-15.254,26.906
			c-12.923,12.5-23.093,10.381-19.703,22.245c3.39,11.864,24.364,13.347,43.643-8.686c19.279-22.033,20.762-57.414-0.847-59.532
			C701.417,393.141,707.561,399.284,704.172,407.335z"/>
		<path class="st2" d="M701.417,393.141c0,0-6.056-8.237-13.228-5.972c-8.014,2.531-8.776,7.744-7.744,15.359
			c1.032,7.615-2.581,22.079-11.229,28.98c-8.647,6.9-19.747,6.513-21.167,14.773c-1.42,8.26,2.966,13.32,10.572,15.079"/>
		<path class="st2" d="M656.598,438.088c0,0-3.306-3.682,1.365-5.747c4.671-2.065,10.662-5.421,13.76-12.777
			c3.098-7.357,0.846-19.256,8.398-20.147"/>
	</g>
	<path class="st5" d="M658.769,446.091c-2.459-1.19-3.414-4.466-3.663-7.402c-0.074-0.872-0.098-1.807,0.307-2.562
		c0.603-1.121,1.956-1.465,3.138-1.347c2.715,0.272,4.985,2.329,6.887,4.473c3.215,3.625,2.928,4.169,6.527,7.331
		c1.631,1.432,3.503,2.675,5.581,2.912c2.078,0.237,4.38-0.756,5.293-2.816c0.346-0.78,0.472-1.714,0.174-2.517
		c-0.237-0.638-0.711-1.129-1.17-1.599c-3.39-3.462-3.754-3.306-7.144-6.768c-2.659-2.715-5.489-5.792-5.855-9.755
		c-0.161-1.744,0.392-3.801,1.884-4.427c1.259-0.528,2.656,0.16,3.802,0.938c3.658,2.482,6.629,5.982,9.899,9.048
		c1.658,1.554,3.526,3.059,5.697,3.287c3.362,0.354,6.541-2.798,7.063-6.458c0.522-3.66-1.286-7.432-4.04-9.578
		c-2.638-2.056-5.927-2.752-8.98-3.932c-1.883-0.728-4.22-1.707-4.629-3.851c-0.949-4.976,3.476-5.764,6.241-6.166"/>
</g>
<g>
	<circle class="st1" cx="420.677" cy="139.792" r="6.575"/>
	<path class="st1" d="M185.624,304.159c0,3.632-2.944,6.575-6.575,6.575c-3.632,0-6.575-2.944-6.575-6.575
		c0-3.631,2.944-6.575,6.575-6.575C182.681,297.583,185.624,300.527,185.624,304.159z"/>
	<circle class="st1" cx="250.542" cy="41.221" r="6.575"/>
	<circle class="st1" cx="518.335" cy="278.889" r="6.575"/>
	<circle class="st1" cx="70.33" cy="184.594" r="6.575"/>
	<path class="st1" d="M662.038,321.929c0,3.632-2.944,6.575-6.575,6.575c-3.632,0-6.575-2.944-6.575-6.575
		c0-3.631,2.944-6.575,6.575-6.575C659.094,315.354,662.038,318.298,662.038,321.929z"/>
	<path class="st1" d="M45.93,79.888c0,3.631-2.944,6.575-6.575,6.575s-6.575-2.944-6.575-6.575c0-3.632,2.944-6.575,6.575-6.575
		S45.93,76.256,45.93,79.888z"/>
	<path class="st1" d="M406.134,454.205c0,3.631-2.944,6.575-6.575,6.575c-3.631,0-6.575-2.944-6.575-6.575
		c0-3.632,2.944-6.575,6.575-6.575C403.19,447.629,406.134,450.573,406.134,454.205z"/>
	<path class="st1" d="M263.974,459.764c0,3.632-2.944,6.575-6.575,6.575c-3.631,0-6.575-2.944-6.575-6.575
		c0-3.631,2.944-6.575,6.575-6.575C261.03,453.188,263.974,456.132,263.974,459.764z"/>
	<circle class="st1" cx="35.627" cy="369.475" r="6.575"/>
	<path class="st1" d="M203.017,157.33c0,3.632-2.944,6.575-6.575,6.575c-3.631,0-6.575-2.944-6.575-6.575s2.944-6.575,6.575-6.575
		C200.073,150.755,203.017,153.698,203.017,157.33z"/>
</g>
<g>
	<path class="st0" d="M603.211,200.157c0,2.499-2.026,4.524-4.524,4.524c-2.499,0-4.524-2.026-4.524-4.524
		c0-2.499,2.026-4.525,4.524-4.525C601.185,195.633,603.211,197.658,603.211,200.157z"/>
	<circle class="st0" cx="314.544" cy="160.162" r="4.524"/>
	<path class="st0" d="M36.621,186.149c0,2.499-2.026,4.524-4.525,4.524c-2.499,0-4.524-2.026-4.524-4.524
		c0-2.499,2.026-4.524,4.524-4.524C34.595,181.625,36.621,183.65,36.621,186.149z"/>
	<path class="st0" d="M356.887,464.288c0,2.499-2.026,4.524-4.524,4.524c-2.499,0-4.524-2.026-4.524-4.524
		c0-2.499,2.026-4.525,4.524-4.525C354.862,459.764,356.887,461.789,356.887,464.288z"/>
	<path class="st0" d="M398.014,29.307c0,2.499-2.026,4.524-4.524,4.524s-4.524-2.026-4.524-4.524c0-2.499,2.026-4.524,4.524-4.524
		S398.014,26.808,398.014,29.307z"/>
	<path class="st0" d="M188.231,465.831c0,2.499-2.026,4.524-4.524,4.524c-2.499,0-4.525-2.026-4.525-4.524
		c0-2.499,2.026-4.524,4.525-4.524C186.205,461.306,188.231,463.332,188.231,465.831z"/>
	<path class="st0" d="M301.908,66.809c0,2.499-2.026,4.524-4.524,4.524c-2.499,0-4.525-2.026-4.525-4.524
		c0-2.499,2.026-4.524,4.525-4.524C299.882,62.285,301.908,64.311,301.908,66.809z"/>
	<path class="st0" d="M573.618,77.823c0,2.499-2.026,4.524-4.524,4.524c-2.499,0-4.524-2.026-4.524-4.524
		c0-2.499,2.026-4.524,4.524-4.524C571.592,73.298,573.618,75.324,573.618,77.823z"/>
	<path class="st0" d="M235.901,326.929c0,2.499-2.026,4.524-4.524,4.524c-2.499,0-4.524-2.026-4.524-4.524
		c0-2.499,2.026-4.524,4.524-4.524C233.875,322.405,235.901,324.431,235.901,326.929z"/>
	<path class="st0" d="M717.347,363.006c0,2.499-2.026,4.524-4.525,4.524c-2.499,0-4.524-2.026-4.524-4.524
		c0-2.499,2.026-4.524,4.524-4.524C715.322,358.481,717.347,360.507,717.347,363.006z"/>
</g>
<g>
	<g>
		<path class="st6" d="M459.255,120.128c-1.773,1.946-10.691-3.82-19.92-12.878s-15.272-17.979-13.499-19.925
			c1.773-1.946,10.691,3.82,19.92,12.878C454.984,109.261,461.028,118.182,459.255,120.128z"/>
		<path class="st6" d="M463.441,125.013c-2.879,3.16-11.628-0.265-26.616-14.977C421.838,95.324,418.771,85.6,421.651,82.44
			c2.879-3.16,11.121,0.853,26.109,15.564C462.747,112.715,466.32,121.852,463.441,125.013z"/>
	</g>
	<g>
		<path class="st6" d="M709.379,257.263c1.437,2.206-6.388,9.385-17.479,16.035c-11.09,6.651-21.245,10.254-22.682,8.048
			c-1.437-2.206,6.388-9.385,17.479-16.036C697.787,258.66,707.942,255.057,709.379,257.263z"/>
		<path class="st6" d="M715.16,254.442c2.334,3.582-3.185,11.187-21.195,21.988c-18.011,10.801-28.194,11.32-30.528,7.738
			c-2.334-3.582,3.625-10.548,21.636-21.349C703.084,252.017,712.826,250.859,715.16,254.442z"/>
	</g>
	<g>
		<path class="st6" d="M143.985,193.145c1.23,2.328-7.218,8.764-18.868,14.375c-11.65,5.611-22.092,8.273-23.322,5.946
			c-1.23-2.328,7.218-8.763,18.868-14.375C132.314,193.48,142.756,190.818,143.985,193.145z"/>
		<path class="st6" d="M150,190.863c1.997,3.78-4.191,10.85-23.112,19.963c-18.921,9.113-29.109,8.702-31.106,4.922
			c-1.997-3.78,4.572-10.174,23.493-19.287C138.195,187.348,148.003,187.083,150,190.863z"/>
	</g>
	<g>
		
			<ellipse transform="matrix(0.9565 -0.2917 0.2917 0.9565 -96.2805 143.9626)" class="st6" cx="434.599" cy="394.831" rx="23.415" ry="4.763"/>
		<path class="st6" d="M463.273,386.615c1.405,4.038-5.778,10.095-25.856,16.254c-20.078,6.159-30.088,4.218-31.493,0.18
			s6.052-9.369,26.13-15.528S461.868,382.577,463.273,386.615z"/>
	</g>
</g>
<g>
	<g>
		<path class="st1" d="M366.478,394.026c0,0-5.096,14.887-15.524,31.679l3.936,4.298c0,0,12.446-17.623,15.898-29.033
			L366.478,394.026z"/>
		<path class="st1" d="M366.478,394.026l-6.408,0.535c0,0-4.082,13.887-13.617,29.849l4.501,1.296"/>
		<polyline class="st1" points="346.453,424.41 350.053,429.081 354.89,430.004 		"/>
	</g>
	<g>
		<path class="st1" d="M353.884,26.769c0,0-11.134,11.119-27.894,21.599l1.639,5.593c0,0,18.937-10.336,27.064-19.058
			L353.884,26.769z"/>
		<path class="st1" d="M353.884,26.769l-5.989-2.343c0,0-9.783,10.668-25.375,20.796l3.47,3.146"/>
		<polyline class="st1" points="322.52,45.221 323.693,51 327.629,53.96 		"/>
	</g>
	<g>
		<path class="st1" d="M705.317,300.875c0,0-5.096,14.887-15.524,31.679l3.936,4.298c0,0,12.446-17.623,15.898-29.033
			L705.317,300.875z"/>
		<path class="st1" d="M705.317,300.875l-6.408,0.535c0,0-4.082,13.887-13.617,29.849l4.501,1.296"/>
		<polyline class="st1" points="685.292,331.259 688.891,335.93 693.728,336.853 		"/>
	</g>
	<g>
		<path class="st1" d="M35.674,220.386c0,0,11.869,10.33,23.495,26.317l5.465-2.026c0,0-11.635-18.169-20.903-25.666L35.674,220.386
			z"/>
		<path class="st1" d="M35.674,220.386l-1.919,6.138c0,0,11.325,9.014,22.518,23.86l2.896-3.681"/>
		<polyline class="st1" points="56.273,250.384 61.956,248.81 64.633,244.677 		"/>
	</g>
	<g>
		<path class="st2" d="M442.603,29.936c0,0,2.679,4.317,6.382,23.734l5.807,0.496c0,0-2.611-12.63-5.688-21.488L442.603,29.936z"/>
		<path class="st2" d="M442.603,29.936l-4.352,4.735c0,0,2.747,2.894,6.545,21.095l4.189-2.096"/>
		<polyline class="st2" points="444.797,55.766 450.608,56.764 454.792,54.166 		"/>
	</g>
	<g>
		<path class="st1" d="M303.735,440.058c0,0,2.679,4.317,6.382,23.734l5.807,0.496c0,0-2.611-12.631-5.688-21.488L303.735,440.058z"
			/>
		<path class="st1" d="M303.735,440.058l-4.352,4.734c0,0,2.747,2.895,6.545,21.095l4.189-2.096"/>
		<polyline class="st1" points="305.929,465.888 311.74,466.885 315.924,464.288 		"/>
	</g>
	<g>
		<path class="st1" d="M32.656,286.165c0,0,2.679,4.317,6.382,23.734l5.807,0.496c0,0-2.611-12.631-5.688-21.488L32.656,286.165z"/>
		<path class="st1" d="M32.656,286.165l-4.352,4.735c0,0,2.747,2.894,6.545,21.095l4.189-2.096"/>
		<polyline class="st1" points="34.85,311.995 40.662,312.993 44.845,310.395 		"/>
	</g>
	<g>
		<path class="st1" d="M200.924,434.35c0,0,4.292,1.093,18.352,11.054l1.095-5.1c0,0-6.42-4.455-13.706-8.159L200.924,434.35z"/>
		<path class="st1" d="M200.924,434.35l0.127,5.604c0,0,1.145-1.127,14.529,8.013l3.696-2.563"/>
	</g>
</g>
<g>
	<g>
		<path class="st2" d="M37.76,149.422c-5.25,4.324-10.132,0.48-10.593-2.368c-0.477-2.946,0.97-9.21,6.218-14.161
			c8.812-8.313,7.875-21.097,7.875-21.097S54.956,135.258,37.76,149.422z"/>
		<path class="st2" d="M38.135,135.702c0,0-11.313,11.645-9.562,24.714"/>
	</g>
	<g>
		<path class="st2" d="M524.621,469.196c-1.911,6.528-8.109,6.093-10.092,3.997c-2.051-2.168-4.375-8.162-2.819-15.207
			c2.614-11.829-5.348-21.875-5.348-21.875S530.879,447.815,524.621,469.196z"/>
		<path class="st2" d="M517.218,457.639c0,0-2.809,15.99,5.986,25.815"/>
	</g>
	<g>
		<path class="st2" d="M578.526,30.004c5.837,3.493,3.855,9.382,1.327,10.773c-2.615,1.439-9.001,2.18-15.427-1.101
			c-10.79-5.508-22.517-0.332-22.517-0.332S559.41,18.564,578.526,30.004z"/>
		<path class="st2" d="M565.478,34.259c0,0,14.768,6.744,26.49,0.707"/>
	</g>
	<g>
		<path class="st2" d="M365.781,156.781c-1.911,6.528-8.109,6.093-10.092,3.997c-2.051-2.168-4.376-8.162-2.819-15.207
			c2.614-11.829-5.348-21.875-5.348-21.875S372.04,135.4,365.781,156.781z"/>
		<path class="st2" d="M358.378,145.224c0,0-2.809,15.99,5.986,25.815"/>
	</g>
</g>
</svg>
